<mxfile host="Electron" modified="2024-05-31T07:46:34.786Z" agent="Mozilla/5.0 (Windows NT 10.0; Win64; x64) AppleWebKit/537.36 (KHTML, like Gecko) draw.io/24.4.8 Chrome/124.0.6367.207 Electron/30.0.6 Safari/537.36" etag="xxNtnydh3JhQrMmQlrYv" version="24.4.8" type="device" pages="6">
  <diagram name="Узел Bands" id="0z7pXyG2HRQCWDq4F3S4">
    <mxGraphModel dx="1100" dy="809" grid="1" gridSize="10" guides="1" tooltips="1" connect="1" arrows="1" fold="1" page="1" pageScale="1" pageWidth="827" pageHeight="1169" math="0" shadow="0">
      <root>
        <mxCell id="0" />
        <mxCell id="1" parent="0" />
        <mxCell id="p-g0bfoVvaIKjin6gbQ0-1" value="" style="ellipse;whiteSpace=wrap;html=1;" vertex="1" parent="1">
          <mxGeometry y="80" width="120" height="120" as="geometry" />
        </mxCell>
        <mxCell id="p-g0bfoVvaIKjin6gbQ0-2" value="" style="ellipse;whiteSpace=wrap;html=1;" vertex="1" parent="1">
          <mxGeometry x="640" y="80" width="120" height="120" as="geometry" />
        </mxCell>
        <mxCell id="p-g0bfoVvaIKjin6gbQ0-3" value="" style="ellipse;whiteSpace=wrap;html=1;" vertex="1" parent="1">
          <mxGeometry x="480" y="80" width="120" height="120" as="geometry" />
        </mxCell>
        <mxCell id="p-g0bfoVvaIKjin6gbQ0-4" value="" style="ellipse;whiteSpace=wrap;html=1;" vertex="1" parent="1">
          <mxGeometry x="320" y="80" width="120" height="120" as="geometry" />
        </mxCell>
        <mxCell id="p-g0bfoVvaIKjin6gbQ0-5" value="" style="ellipse;whiteSpace=wrap;html=1;" vertex="1" parent="1">
          <mxGeometry x="160" y="80" width="120" height="120" as="geometry" />
        </mxCell>
        <mxCell id="p-g0bfoVvaIKjin6gbQ0-6" value="" style="ellipse;whiteSpace=wrap;html=1;" vertex="1" parent="1">
          <mxGeometry y="240" width="120" height="120" as="geometry" />
        </mxCell>
        <mxCell id="p-g0bfoVvaIKjin6gbQ0-7" value="" style="ellipse;whiteSpace=wrap;html=1;" vertex="1" parent="1">
          <mxGeometry x="480" y="240" width="120" height="120" as="geometry" />
        </mxCell>
        <mxCell id="p-g0bfoVvaIKjin6gbQ0-8" value="" style="ellipse;whiteSpace=wrap;html=1;" vertex="1" parent="1">
          <mxGeometry x="320" y="240" width="120" height="120" as="geometry" />
        </mxCell>
        <mxCell id="p-g0bfoVvaIKjin6gbQ0-9" value="" style="ellipse;whiteSpace=wrap;html=1;" vertex="1" parent="1">
          <mxGeometry x="160" y="240" width="120" height="120" as="geometry" />
        </mxCell>
        <mxCell id="p-g0bfoVvaIKjin6gbQ0-10" value="" style="ellipse;whiteSpace=wrap;html=1;" vertex="1" parent="1">
          <mxGeometry x="640" y="240" width="120" height="120" as="geometry" />
        </mxCell>
        <mxCell id="p-g0bfoVvaIKjin6gbQ0-11" value="" style="ellipse;whiteSpace=wrap;html=1;" vertex="1" parent="1">
          <mxGeometry x="40" y="80" width="40" height="40" as="geometry" />
        </mxCell>
        <mxCell id="p-g0bfoVvaIKjin6gbQ0-12" value="" style="ellipse;whiteSpace=wrap;html=1;" vertex="1" parent="1">
          <mxGeometry x="680" y="80" width="40" height="40" as="geometry" />
        </mxCell>
        <mxCell id="p-g0bfoVvaIKjin6gbQ0-13" value="" style="ellipse;whiteSpace=wrap;html=1;" vertex="1" parent="1">
          <mxGeometry x="520" y="80" width="40" height="40" as="geometry" />
        </mxCell>
        <mxCell id="p-g0bfoVvaIKjin6gbQ0-14" value="" style="ellipse;whiteSpace=wrap;html=1;" vertex="1" parent="1">
          <mxGeometry x="360" y="80" width="40" height="40" as="geometry" />
        </mxCell>
        <mxCell id="p-g0bfoVvaIKjin6gbQ0-15" value="" style="ellipse;whiteSpace=wrap;html=1;" vertex="1" parent="1">
          <mxGeometry x="200" y="80" width="40" height="40" as="geometry" />
        </mxCell>
        <mxCell id="p-g0bfoVvaIKjin6gbQ0-16" value="" style="ellipse;whiteSpace=wrap;html=1;" vertex="1" parent="1">
          <mxGeometry x="40" y="240" width="40" height="40" as="geometry" />
        </mxCell>
        <mxCell id="p-g0bfoVvaIKjin6gbQ0-17" value="" style="ellipse;whiteSpace=wrap;html=1;" vertex="1" parent="1">
          <mxGeometry x="680" y="240" width="40" height="40" as="geometry" />
        </mxCell>
        <mxCell id="p-g0bfoVvaIKjin6gbQ0-18" value="" style="ellipse;whiteSpace=wrap;html=1;" vertex="1" parent="1">
          <mxGeometry x="520" y="240" width="40" height="40" as="geometry" />
        </mxCell>
        <mxCell id="p-g0bfoVvaIKjin6gbQ0-19" value="" style="ellipse;whiteSpace=wrap;html=1;" vertex="1" parent="1">
          <mxGeometry x="360" y="240" width="40" height="40" as="geometry" />
        </mxCell>
        <mxCell id="p-g0bfoVvaIKjin6gbQ0-20" value="" style="ellipse;whiteSpace=wrap;html=1;" vertex="1" parent="1">
          <mxGeometry x="200" y="240" width="40" height="40" as="geometry" />
        </mxCell>
        <mxCell id="p-g0bfoVvaIKjin6gbQ0-21" value="&lt;font style=&quot;font-size: 18px;&quot;&gt;1&lt;/font&gt;" style="text;html=1;align=center;verticalAlign=middle;whiteSpace=wrap;rounded=0;" vertex="1" parent="1">
          <mxGeometry x="30" y="85" width="60" height="30" as="geometry" />
        </mxCell>
        <mxCell id="p-g0bfoVvaIKjin6gbQ0-22" value="&lt;font style=&quot;font-size: 18px;&quot;&gt;9&lt;/font&gt;" style="text;html=1;align=center;verticalAlign=middle;whiteSpace=wrap;rounded=0;" vertex="1" parent="1">
          <mxGeometry x="510" y="240" width="60" height="30" as="geometry" />
        </mxCell>
        <mxCell id="p-g0bfoVvaIKjin6gbQ0-23" value="&lt;font style=&quot;font-size: 18px;&quot;&gt;8&lt;/font&gt;" style="text;html=1;align=center;verticalAlign=middle;whiteSpace=wrap;rounded=0;" vertex="1" parent="1">
          <mxGeometry x="350" y="240" width="60" height="30" as="geometry" />
        </mxCell>
        <mxCell id="p-g0bfoVvaIKjin6gbQ0-24" value="&lt;font style=&quot;font-size: 18px;&quot;&gt;7&lt;/font&gt;" style="text;html=1;align=center;verticalAlign=middle;whiteSpace=wrap;rounded=0;" vertex="1" parent="1">
          <mxGeometry x="190" y="240" width="60" height="30" as="geometry" />
        </mxCell>
        <mxCell id="p-g0bfoVvaIKjin6gbQ0-25" value="&lt;font style=&quot;font-size: 18px;&quot;&gt;6&lt;/font&gt;" style="text;html=1;align=center;verticalAlign=middle;whiteSpace=wrap;rounded=0;" vertex="1" parent="1">
          <mxGeometry x="30" y="240" width="60" height="30" as="geometry" />
        </mxCell>
        <mxCell id="p-g0bfoVvaIKjin6gbQ0-26" value="&lt;font style=&quot;font-size: 18px;&quot;&gt;5&lt;/font&gt;" style="text;html=1;align=center;verticalAlign=middle;whiteSpace=wrap;rounded=0;" vertex="1" parent="1">
          <mxGeometry x="670" y="80" width="60" height="30" as="geometry" />
        </mxCell>
        <mxCell id="p-g0bfoVvaIKjin6gbQ0-27" value="&lt;font style=&quot;font-size: 18px;&quot;&gt;4&lt;/font&gt;" style="text;html=1;align=center;verticalAlign=middle;whiteSpace=wrap;rounded=0;" vertex="1" parent="1">
          <mxGeometry x="510" y="80" width="60" height="30" as="geometry" />
        </mxCell>
        <mxCell id="p-g0bfoVvaIKjin6gbQ0-28" value="&lt;font style=&quot;font-size: 18px;&quot;&gt;3&lt;/font&gt;" style="text;html=1;align=center;verticalAlign=middle;whiteSpace=wrap;rounded=0;" vertex="1" parent="1">
          <mxGeometry x="350" y="80" width="60" height="30" as="geometry" />
        </mxCell>
        <mxCell id="p-g0bfoVvaIKjin6gbQ0-29" value="&lt;font style=&quot;font-size: 18px;&quot;&gt;2&lt;/font&gt;" style="text;html=1;align=center;verticalAlign=middle;whiteSpace=wrap;rounded=0;" vertex="1" parent="1">
          <mxGeometry x="190" y="80" width="60" height="30" as="geometry" />
        </mxCell>
        <mxCell id="p-g0bfoVvaIKjin6gbQ0-30" value="&lt;font style=&quot;font-size: 18px;&quot;&gt;10&lt;/font&gt;" style="text;html=1;align=center;verticalAlign=middle;whiteSpace=wrap;rounded=0;" vertex="1" parent="1">
          <mxGeometry x="670" y="240" width="60" height="30" as="geometry" />
        </mxCell>
        <mxCell id="p-g0bfoVvaIKjin6gbQ0-31" value="&lt;span style=&quot;color: rgb(0, 0, 0); font-family: Helvetica; font-size: 12px; font-style: normal; font-variant-ligatures: normal; font-variant-caps: normal; font-weight: 400; letter-spacing: normal; orphans: 2; text-align: left; text-indent: 0px; text-transform: none; widows: 2; word-spacing: 0px; -webkit-text-stroke-width: 0px; background-color: rgb(251, 251, 251); text-decoration-thickness: initial; text-decoration-style: initial; text-decoration-color: initial; float: none; display: inline !important;&quot;&gt;The Beatles&lt;/span&gt;" style="text;whiteSpace=wrap;html=1;" vertex="1" parent="1">
          <mxGeometry x="25" y="125" width="70" height="30" as="geometry" />
        </mxCell>
        <mxCell id="p-g0bfoVvaIKjin6gbQ0-32" value="&lt;span style=&quot;color: rgb(0, 0, 0); font-family: Helvetica; font-size: 12px; font-style: normal; font-variant-ligatures: normal; font-variant-caps: normal; font-weight: 400; letter-spacing: normal; orphans: 2; text-align: left; text-indent: 0px; text-transform: none; widows: 2; word-spacing: 0px; -webkit-text-stroke-width: 0px; background-color: rgb(251, 251, 251); text-decoration-thickness: initial; text-decoration-style: initial; text-decoration-color: initial; float: none; display: inline !important;&quot;&gt;Rock&lt;/span&gt;" style="text;whiteSpace=wrap;html=1;" vertex="1" parent="1">
          <mxGeometry x="42.5" y="160" width="35" height="20" as="geometry" />
        </mxCell>
        <mxCell id="p-g0bfoVvaIKjin6gbQ0-121" value="&lt;span style=&quot;color: rgb(0, 0, 0); font-family: Helvetica; font-size: 12px; font-style: normal; font-variant-ligatures: normal; font-variant-caps: normal; font-weight: 400; letter-spacing: normal; orphans: 2; text-align: left; text-indent: 0px; text-transform: none; widows: 2; word-spacing: 0px; -webkit-text-stroke-width: 0px; background-color: rgb(251, 251, 251); text-decoration-thickness: initial; text-decoration-style: initial; text-decoration-color: initial; float: none; display: inline !important;&quot;&gt;Led Zeppelin&lt;/span&gt;" style="text;whiteSpace=wrap;html=1;" vertex="1" parent="1">
          <mxGeometry x="185" y="120" width="75" height="30" as="geometry" />
        </mxCell>
        <mxCell id="p-g0bfoVvaIKjin6gbQ0-122" value="&lt;span style=&quot;color: rgb(0, 0, 0); font-family: Helvetica; font-size: 12px; font-style: normal; font-variant-ligatures: normal; font-variant-caps: normal; font-weight: 400; letter-spacing: normal; orphans: 2; text-align: left; text-indent: 0px; text-transform: none; widows: 2; word-spacing: 0px; -webkit-text-stroke-width: 0px; background-color: rgb(251, 251, 251); text-decoration-thickness: initial; text-decoration-style: initial; text-decoration-color: initial; float: none; display: inline !important;&quot;&gt;Rock&lt;/span&gt;" style="text;whiteSpace=wrap;html=1;" vertex="1" parent="1">
          <mxGeometry x="202.5" y="155" width="35" height="20" as="geometry" />
        </mxCell>
        <mxCell id="p-g0bfoVvaIKjin6gbQ0-130" value="Radiohead" style="text;whiteSpace=wrap;html=1;" vertex="1" parent="1">
          <mxGeometry x="25" y="290" width="70" height="30" as="geometry" />
        </mxCell>
        <mxCell id="p-g0bfoVvaIKjin6gbQ0-131" value="&lt;span style=&quot;color: rgb(0, 0, 0); font-family: Helvetica; font-size: 12px; font-style: normal; font-variant-ligatures: normal; font-variant-caps: normal; font-weight: 400; letter-spacing: normal; orphans: 2; text-align: left; text-indent: 0px; text-transform: none; widows: 2; word-spacing: 0px; -webkit-text-stroke-width: 0px; background-color: rgb(251, 251, 251); text-decoration-thickness: initial; text-decoration-style: initial; text-decoration-color: initial; float: none; display: inline !important;&quot;&gt;Alternative Rock&lt;/span&gt;" style="text;whiteSpace=wrap;html=1;" vertex="1" parent="1">
          <mxGeometry x="10" y="310" width="110" height="20" as="geometry" />
        </mxCell>
        <mxCell id="p-g0bfoVvaIKjin6gbQ0-132" value="&lt;span style=&quot;color: rgb(0, 0, 0); font-family: Helvetica; font-size: 12px; font-style: normal; font-variant-ligatures: normal; font-variant-caps: normal; font-weight: 400; letter-spacing: normal; orphans: 2; text-align: left; text-indent: 0px; text-transform: none; widows: 2; word-spacing: 0px; -webkit-text-stroke-width: 0px; background-color: rgb(251, 251, 251); text-decoration-thickness: initial; text-decoration-style: initial; text-decoration-color: initial; float: none; display: inline !important;&quot;&gt;The Rolling Stones&lt;/span&gt;" style="text;whiteSpace=wrap;html=1;" vertex="1" parent="1">
          <mxGeometry x="185" y="280" width="70" height="30" as="geometry" />
        </mxCell>
        <mxCell id="p-g0bfoVvaIKjin6gbQ0-133" value="&lt;span style=&quot;color: rgb(0, 0, 0); font-family: Helvetica; font-size: 12px; font-style: normal; font-variant-ligatures: normal; font-variant-caps: normal; font-weight: 400; letter-spacing: normal; orphans: 2; text-align: left; text-indent: 0px; text-transform: none; widows: 2; word-spacing: 0px; -webkit-text-stroke-width: 0px; background-color: rgb(251, 251, 251); text-decoration-thickness: initial; text-decoration-style: initial; text-decoration-color: initial; float: none; display: inline !important;&quot;&gt;Rock&lt;/span&gt;" style="text;whiteSpace=wrap;html=1;" vertex="1" parent="1">
          <mxGeometry x="202.5" y="315" width="35" height="20" as="geometry" />
        </mxCell>
        <mxCell id="p-g0bfoVvaIKjin6gbQ0-134" value="&lt;span style=&quot;color: rgb(0, 0, 0); font-family: Helvetica; font-size: 12px; font-style: normal; font-variant-ligatures: normal; font-variant-caps: normal; font-weight: 400; letter-spacing: normal; orphans: 2; text-align: left; text-indent: 0px; text-transform: none; widows: 2; word-spacing: 0px; -webkit-text-stroke-width: 0px; background-color: rgb(251, 251, 251); text-decoration-thickness: initial; text-decoration-style: initial; text-decoration-color: initial; float: none; display: inline !important;&quot;&gt;Pink Floyd&lt;/span&gt;" style="text;whiteSpace=wrap;html=1;" vertex="1" parent="1">
          <mxGeometry x="345" y="120" width="70" height="30" as="geometry" />
        </mxCell>
        <mxCell id="p-g0bfoVvaIKjin6gbQ0-135" value="&lt;span style=&quot;color: rgb(0, 0, 0); font-family: Helvetica; font-size: 12px; font-style: normal; font-variant-ligatures: normal; font-variant-caps: normal; font-weight: 400; letter-spacing: normal; orphans: 2; text-align: left; text-indent: 0px; text-transform: none; widows: 2; word-spacing: 0px; -webkit-text-stroke-width: 0px; background-color: rgb(251, 251, 251); text-decoration-thickness: initial; text-decoration-style: initial; text-decoration-color: initial; float: none; display: inline !important;&quot;&gt;Progressive Rock&lt;/span&gt;" style="text;whiteSpace=wrap;html=1;" vertex="1" parent="1">
          <mxGeometry x="343" y="145" width="80" height="20" as="geometry" />
        </mxCell>
        <mxCell id="p-g0bfoVvaIKjin6gbQ0-136" value="&lt;span style=&quot;color: rgb(0, 0, 0); font-family: Helvetica; font-size: 12px; font-style: normal; font-variant-ligatures: normal; font-variant-caps: normal; font-weight: 400; letter-spacing: normal; orphans: 2; text-align: left; text-indent: 0px; text-transform: none; widows: 2; word-spacing: 0px; -webkit-text-stroke-width: 0px; background-color: rgb(251, 251, 251); text-decoration-thickness: initial; text-decoration-style: initial; text-decoration-color: initial; float: none; display: inline !important;&quot;&gt;Metallica&lt;/span&gt;" style="text;whiteSpace=wrap;html=1;" vertex="1" parent="1">
          <mxGeometry x="515" y="125" width="70" height="30" as="geometry" />
        </mxCell>
        <mxCell id="p-g0bfoVvaIKjin6gbQ0-137" value="&lt;span style=&quot;color: rgb(0, 0, 0); font-family: Helvetica; font-size: 12px; font-style: normal; font-variant-ligatures: normal; font-variant-caps: normal; font-weight: 400; letter-spacing: normal; orphans: 2; text-align: left; text-indent: 0px; text-transform: none; widows: 2; word-spacing: 0px; -webkit-text-stroke-width: 0px; background-color: rgb(251, 251, 251); text-decoration-thickness: initial; text-decoration-style: initial; text-decoration-color: initial; float: none; display: inline !important;&quot;&gt;Metal&lt;/span&gt;" style="text;whiteSpace=wrap;html=1;" vertex="1" parent="1">
          <mxGeometry x="522.5" y="160" width="35" height="20" as="geometry" />
        </mxCell>
        <mxCell id="p-g0bfoVvaIKjin6gbQ0-140" value="Nirvana" style="text;whiteSpace=wrap;html=1;" vertex="1" parent="1">
          <mxGeometry x="673" y="125" width="70" height="30" as="geometry" />
        </mxCell>
        <mxCell id="p-g0bfoVvaIKjin6gbQ0-141" value="&lt;span style=&quot;color: rgb(0, 0, 0); font-family: Helvetica; font-size: 12px; font-style: normal; font-variant-ligatures: normal; font-variant-caps: normal; font-weight: 400; letter-spacing: normal; orphans: 2; text-align: left; text-indent: 0px; text-transform: none; widows: 2; word-spacing: 0px; -webkit-text-stroke-width: 0px; background-color: rgb(251, 251, 251); text-decoration-thickness: initial; text-decoration-style: initial; text-decoration-color: initial; float: none; display: inline !important;&quot;&gt;Grunge&lt;/span&gt;" style="text;whiteSpace=wrap;html=1;" vertex="1" parent="1">
          <mxGeometry x="676.5" y="160" width="35" height="20" as="geometry" />
        </mxCell>
        <mxCell id="p-g0bfoVvaIKjin6gbQ0-142" value="&lt;span style=&quot;color: rgb(0, 0, 0); font-family: Helvetica; font-size: 12px; font-style: normal; font-variant-ligatures: normal; font-variant-caps: normal; font-weight: 400; letter-spacing: normal; orphans: 2; text-align: left; text-indent: 0px; text-transform: none; widows: 2; word-spacing: 0px; -webkit-text-stroke-width: 0px; background-color: rgb(251, 251, 251); text-decoration-thickness: initial; text-decoration-style: initial; text-decoration-color: initial; float: none; display: inline !important;&quot;&gt;Queen&lt;/span&gt;" style="text;whiteSpace=wrap;html=1;" vertex="1" parent="1">
          <mxGeometry x="359" y="290" width="70" height="30" as="geometry" />
        </mxCell>
        <mxCell id="p-g0bfoVvaIKjin6gbQ0-143" value="&lt;span style=&quot;color: rgb(0, 0, 0); font-family: Helvetica; font-size: 12px; font-style: normal; font-variant-ligatures: normal; font-variant-caps: normal; font-weight: 400; letter-spacing: normal; orphans: 2; text-align: left; text-indent: 0px; text-transform: none; widows: 2; word-spacing: 0px; -webkit-text-stroke-width: 0px; background-color: rgb(251, 251, 251); text-decoration-thickness: initial; text-decoration-style: initial; text-decoration-color: initial; float: none; display: inline !important;&quot;&gt;Rock&lt;/span&gt;" style="text;whiteSpace=wrap;html=1;" vertex="1" parent="1">
          <mxGeometry x="362.5" y="325" width="35" height="20" as="geometry" />
        </mxCell>
        <mxCell id="p-g0bfoVvaIKjin6gbQ0-144" value="&lt;span style=&quot;color: rgb(0, 0, 0); font-family: Helvetica; font-size: 12px; font-style: normal; font-variant-ligatures: normal; font-variant-caps: normal; font-weight: 400; letter-spacing: normal; orphans: 2; text-align: left; text-indent: 0px; text-transform: none; widows: 2; word-spacing: 0px; -webkit-text-stroke-width: 0px; background-color: rgb(251, 251, 251); text-decoration-thickness: initial; text-decoration-style: initial; text-decoration-color: initial; float: none; display: inline !important;&quot;&gt;AC/DC&lt;/span&gt;" style="text;whiteSpace=wrap;html=1;" vertex="1" parent="1">
          <mxGeometry x="519" y="287" width="70" height="30" as="geometry" />
        </mxCell>
        <mxCell id="p-g0bfoVvaIKjin6gbQ0-145" value="&lt;span style=&quot;color: rgb(0, 0, 0); font-family: Helvetica; font-size: 12px; font-style: normal; font-variant-ligatures: normal; font-variant-caps: normal; font-weight: 400; letter-spacing: normal; orphans: 2; text-align: left; text-indent: 0px; text-transform: none; widows: 2; word-spacing: 0px; -webkit-text-stroke-width: 0px; background-color: rgb(251, 251, 251); text-decoration-thickness: initial; text-decoration-style: initial; text-decoration-color: initial; float: none; display: inline !important;&quot;&gt;Hard Rock&lt;/span&gt;" style="text;whiteSpace=wrap;html=1;" vertex="1" parent="1">
          <mxGeometry x="525" y="314" width="39.5" height="20" as="geometry" />
        </mxCell>
        <mxCell id="p-g0bfoVvaIKjin6gbQ0-146" value="&lt;span style=&quot;color: rgb(0, 0, 0); font-family: Helvetica; font-size: 12px; font-style: normal; font-variant-ligatures: normal; font-variant-caps: normal; font-weight: 400; letter-spacing: normal; orphans: 2; text-align: left; text-indent: 0px; text-transform: none; widows: 2; word-spacing: 0px; -webkit-text-stroke-width: 0px; background-color: rgb(251, 251, 251); text-decoration-thickness: initial; text-decoration-style: initial; text-decoration-color: initial; float: none; display: inline !important;&quot;&gt;The Doors&lt;/span&gt;" style="text;whiteSpace=wrap;html=1;" vertex="1" parent="1">
          <mxGeometry x="671" y="284" width="70" height="30" as="geometry" />
        </mxCell>
        <mxCell id="p-g0bfoVvaIKjin6gbQ0-147" value="&lt;span style=&quot;color: rgb(0, 0, 0); font-family: Helvetica; font-size: 12px; font-style: normal; font-variant-ligatures: normal; font-variant-caps: normal; font-weight: 400; letter-spacing: normal; orphans: 2; text-align: left; text-indent: 0px; text-transform: none; widows: 2; word-spacing: 0px; -webkit-text-stroke-width: 0px; background-color: rgb(251, 251, 251); text-decoration-thickness: initial; text-decoration-style: initial; text-decoration-color: initial; float: none; display: inline !important;&quot;&gt;Psychedelic Rock&lt;/span&gt;" style="text;whiteSpace=wrap;html=1;" vertex="1" parent="1">
          <mxGeometry x="669.5" y="310" width="35" height="20" as="geometry" />
        </mxCell>
      </root>
    </mxGraphModel>
  </diagram>
  <diagram id="9xZNigFHJN2XtFfBQqT4" name="Узел Albums">
    <mxGraphModel dx="1100" dy="809" grid="1" gridSize="10" guides="1" tooltips="1" connect="1" arrows="1" fold="1" page="1" pageScale="1" pageWidth="827" pageHeight="1169" math="0" shadow="0">
      <root>
        <mxCell id="0" />
        <mxCell id="1" parent="0" />
        <mxCell id="6M-3ACbZJSzWJa0tOA0y-1" value="" style="rounded=0;whiteSpace=wrap;html=1;" vertex="1" parent="1">
          <mxGeometry y="80" width="120" height="80" as="geometry" />
        </mxCell>
        <mxCell id="6M-3ACbZJSzWJa0tOA0y-2" value="" style="rounded=0;whiteSpace=wrap;html=1;" vertex="1" parent="1">
          <mxGeometry y="200" width="120" height="80" as="geometry" />
        </mxCell>
        <mxCell id="6M-3ACbZJSzWJa0tOA0y-3" value="" style="rounded=0;whiteSpace=wrap;html=1;" vertex="1" parent="1">
          <mxGeometry x="160" y="200" width="120" height="80" as="geometry" />
        </mxCell>
        <mxCell id="6M-3ACbZJSzWJa0tOA0y-4" value="" style="rounded=0;whiteSpace=wrap;html=1;" vertex="1" parent="1">
          <mxGeometry x="320" y="200" width="120" height="80" as="geometry" />
        </mxCell>
        <mxCell id="6M-3ACbZJSzWJa0tOA0y-5" value="" style="rounded=0;whiteSpace=wrap;html=1;" vertex="1" parent="1">
          <mxGeometry x="480" y="200" width="120" height="80" as="geometry" />
        </mxCell>
        <mxCell id="6M-3ACbZJSzWJa0tOA0y-6" value="" style="rounded=0;whiteSpace=wrap;html=1;" vertex="1" parent="1">
          <mxGeometry x="640" y="200" width="120" height="80" as="geometry" />
        </mxCell>
        <mxCell id="6M-3ACbZJSzWJa0tOA0y-7" value="" style="rounded=0;whiteSpace=wrap;html=1;" vertex="1" parent="1">
          <mxGeometry x="640" y="80" width="120" height="80" as="geometry" />
        </mxCell>
        <mxCell id="6M-3ACbZJSzWJa0tOA0y-8" value="" style="rounded=0;whiteSpace=wrap;html=1;" vertex="1" parent="1">
          <mxGeometry x="480" y="80" width="120" height="80" as="geometry" />
        </mxCell>
        <mxCell id="6M-3ACbZJSzWJa0tOA0y-9" value="" style="rounded=0;whiteSpace=wrap;html=1;" vertex="1" parent="1">
          <mxGeometry x="320" y="80" width="120" height="80" as="geometry" />
        </mxCell>
        <mxCell id="6M-3ACbZJSzWJa0tOA0y-10" value="" style="rounded=0;whiteSpace=wrap;html=1;" vertex="1" parent="1">
          <mxGeometry x="160" y="80" width="120" height="80" as="geometry" />
        </mxCell>
        <mxCell id="6M-3ACbZJSzWJa0tOA0y-11" value="" style="rounded=0;whiteSpace=wrap;html=1;" vertex="1" parent="1">
          <mxGeometry x="40" y="80" width="40" height="30" as="geometry" />
        </mxCell>
        <mxCell id="6M-3ACbZJSzWJa0tOA0y-12" value="" style="rounded=0;whiteSpace=wrap;html=1;" vertex="1" parent="1">
          <mxGeometry x="680" y="200" width="40" height="30" as="geometry" />
        </mxCell>
        <mxCell id="6M-3ACbZJSzWJa0tOA0y-13" value="" style="rounded=0;whiteSpace=wrap;html=1;" vertex="1" parent="1">
          <mxGeometry x="520" y="200" width="40" height="30" as="geometry" />
        </mxCell>
        <mxCell id="6M-3ACbZJSzWJa0tOA0y-14" value="" style="rounded=0;whiteSpace=wrap;html=1;" vertex="1" parent="1">
          <mxGeometry x="360" y="200" width="40" height="30" as="geometry" />
        </mxCell>
        <mxCell id="6M-3ACbZJSzWJa0tOA0y-15" value="" style="rounded=0;whiteSpace=wrap;html=1;" vertex="1" parent="1">
          <mxGeometry x="200" y="200" width="40" height="30" as="geometry" />
        </mxCell>
        <mxCell id="6M-3ACbZJSzWJa0tOA0y-16" value="" style="rounded=0;whiteSpace=wrap;html=1;" vertex="1" parent="1">
          <mxGeometry x="40" y="200" width="40" height="30" as="geometry" />
        </mxCell>
        <mxCell id="6M-3ACbZJSzWJa0tOA0y-17" value="" style="rounded=0;whiteSpace=wrap;html=1;" vertex="1" parent="1">
          <mxGeometry x="680" y="80" width="40" height="30" as="geometry" />
        </mxCell>
        <mxCell id="6M-3ACbZJSzWJa0tOA0y-18" value="" style="rounded=0;whiteSpace=wrap;html=1;" vertex="1" parent="1">
          <mxGeometry x="520" y="80" width="40" height="30" as="geometry" />
        </mxCell>
        <mxCell id="6M-3ACbZJSzWJa0tOA0y-19" value="" style="rounded=0;whiteSpace=wrap;html=1;" vertex="1" parent="1">
          <mxGeometry x="360" y="80" width="40" height="30" as="geometry" />
        </mxCell>
        <mxCell id="6M-3ACbZJSzWJa0tOA0y-20" value="" style="rounded=0;whiteSpace=wrap;html=1;" vertex="1" parent="1">
          <mxGeometry x="200" y="80" width="40" height="30" as="geometry" />
        </mxCell>
        <mxCell id="6M-3ACbZJSzWJa0tOA0y-21" value="&lt;font style=&quot;font-size: 18px;&quot;&gt;1&lt;/font&gt;" style="text;html=1;align=center;verticalAlign=middle;whiteSpace=wrap;rounded=0;" vertex="1" parent="1">
          <mxGeometry x="30" y="80" width="60" height="30" as="geometry" />
        </mxCell>
        <mxCell id="6M-3ACbZJSzWJa0tOA0y-22" value="&lt;font style=&quot;font-size: 18px;&quot;&gt;2&lt;/font&gt;" style="text;html=1;align=center;verticalAlign=middle;whiteSpace=wrap;rounded=0;" vertex="1" parent="1">
          <mxGeometry x="190" y="80" width="60" height="30" as="geometry" />
        </mxCell>
        <mxCell id="6M-3ACbZJSzWJa0tOA0y-23" value="&lt;font style=&quot;font-size: 18px;&quot;&gt;3&lt;/font&gt;" style="text;html=1;align=center;verticalAlign=middle;whiteSpace=wrap;rounded=0;" vertex="1" parent="1">
          <mxGeometry x="350" y="80" width="60" height="30" as="geometry" />
        </mxCell>
        <mxCell id="6M-3ACbZJSzWJa0tOA0y-24" value="&lt;span style=&quot;font-size: 18px;&quot;&gt;4&lt;/span&gt;" style="text;html=1;align=center;verticalAlign=middle;whiteSpace=wrap;rounded=0;" vertex="1" parent="1">
          <mxGeometry x="510" y="80" width="60" height="30" as="geometry" />
        </mxCell>
        <mxCell id="6M-3ACbZJSzWJa0tOA0y-25" value="&lt;font style=&quot;font-size: 18px;&quot;&gt;5&lt;/font&gt;" style="text;html=1;align=center;verticalAlign=middle;whiteSpace=wrap;rounded=0;" vertex="1" parent="1">
          <mxGeometry x="670" y="80" width="60" height="30" as="geometry" />
        </mxCell>
        <mxCell id="6M-3ACbZJSzWJa0tOA0y-26" value="&lt;font style=&quot;font-size: 18px;&quot;&gt;6&lt;/font&gt;" style="text;html=1;align=center;verticalAlign=middle;whiteSpace=wrap;rounded=0;" vertex="1" parent="1">
          <mxGeometry x="30" y="200" width="60" height="30" as="geometry" />
        </mxCell>
        <mxCell id="6M-3ACbZJSzWJa0tOA0y-27" value="&lt;font style=&quot;font-size: 18px;&quot;&gt;7&lt;/font&gt;" style="text;html=1;align=center;verticalAlign=middle;whiteSpace=wrap;rounded=0;" vertex="1" parent="1">
          <mxGeometry x="190" y="200" width="60" height="30" as="geometry" />
        </mxCell>
        <mxCell id="6M-3ACbZJSzWJa0tOA0y-28" value="&lt;font style=&quot;font-size: 18px;&quot;&gt;8&lt;/font&gt;" style="text;html=1;align=center;verticalAlign=middle;whiteSpace=wrap;rounded=0;" vertex="1" parent="1">
          <mxGeometry x="350" y="200" width="60" height="30" as="geometry" />
        </mxCell>
        <mxCell id="6M-3ACbZJSzWJa0tOA0y-29" value="&lt;font style=&quot;font-size: 18px;&quot;&gt;9&lt;/font&gt;" style="text;html=1;align=center;verticalAlign=middle;whiteSpace=wrap;rounded=0;" vertex="1" parent="1">
          <mxGeometry x="510" y="200" width="60" height="30" as="geometry" />
        </mxCell>
        <mxCell id="6M-3ACbZJSzWJa0tOA0y-30" value="&lt;font style=&quot;font-size: 18px;&quot;&gt;10&lt;/font&gt;" style="text;html=1;align=center;verticalAlign=middle;whiteSpace=wrap;rounded=0;" vertex="1" parent="1">
          <mxGeometry x="670" y="200" width="60" height="30" as="geometry" />
        </mxCell>
        <mxCell id="6M-3ACbZJSzWJa0tOA0y-31" value="&lt;span style=&quot;color: rgb(0, 0, 0); font-family: Helvetica; font-size: 12px; font-style: normal; font-variant-ligatures: normal; font-variant-caps: normal; font-weight: 400; letter-spacing: normal; orphans: 2; text-align: left; text-indent: 0px; text-transform: none; widows: 2; word-spacing: 0px; -webkit-text-stroke-width: 0px; background-color: rgb(251, 251, 251); text-decoration-thickness: initial; text-decoration-style: initial; text-decoration-color: initial; float: none; display: inline !important;&quot;&gt;Abbey Road&lt;/span&gt;" style="text;whiteSpace=wrap;html=1;" vertex="1" parent="1">
          <mxGeometry x="25" y="110" width="70" height="30" as="geometry" />
        </mxCell>
        <mxCell id="6M-3ACbZJSzWJa0tOA0y-32" value="&lt;span style=&quot;color: rgb(0, 0, 0); font-family: Helvetica; font-size: 12px; font-style: normal; font-variant-ligatures: normal; font-variant-caps: normal; font-weight: 400; letter-spacing: normal; orphans: 2; text-align: left; text-indent: 0px; text-transform: none; widows: 2; word-spacing: 0px; -webkit-text-stroke-width: 0px; background-color: rgb(251, 251, 251); text-decoration-thickness: initial; text-decoration-style: initial; text-decoration-color: initial; float: none; display: inline !important;&quot;&gt;1969&lt;/span&gt;" style="text;whiteSpace=wrap;html=1;" vertex="1" parent="1">
          <mxGeometry x="40" y="130" width="40" height="40" as="geometry" />
        </mxCell>
        <mxCell id="6M-3ACbZJSzWJa0tOA0y-46" value="&lt;span style=&quot;color: rgb(0, 0, 0); font-family: Helvetica; font-size: 12px; font-style: normal; font-variant-ligatures: normal; font-variant-caps: normal; font-weight: 400; letter-spacing: normal; orphans: 2; text-align: left; text-indent: 0px; text-transform: none; widows: 2; word-spacing: 0px; -webkit-text-stroke-width: 0px; background-color: rgb(251, 251, 251); text-decoration-thickness: initial; text-decoration-style: initial; text-decoration-color: initial; float: none; display: inline !important;&quot;&gt;Led Zeppelin IV&lt;/span&gt;" style="text;whiteSpace=wrap;html=1;" vertex="1" parent="1">
          <mxGeometry x="176" y="110" width="103" height="30" as="geometry" />
        </mxCell>
        <mxCell id="6M-3ACbZJSzWJa0tOA0y-47" value="&lt;span style=&quot;color: rgb(0, 0, 0); font-family: Helvetica; font-size: 12px; font-style: normal; font-variant-ligatures: normal; font-variant-caps: normal; font-weight: 400; letter-spacing: normal; orphans: 2; text-align: left; text-indent: 0px; text-transform: none; widows: 2; word-spacing: 0px; -webkit-text-stroke-width: 0px; background-color: rgb(251, 251, 251); text-decoration-thickness: initial; text-decoration-style: initial; text-decoration-color: initial; float: none; display: inline !important;&quot;&gt;1971&lt;/span&gt;" style="text;whiteSpace=wrap;html=1;" vertex="1" parent="1">
          <mxGeometry x="202" y="130" width="40" height="40" as="geometry" />
        </mxCell>
        <mxCell id="6M-3ACbZJSzWJa0tOA0y-48" value="&lt;span style=&quot;color: rgb(0, 0, 0); font-family: Helvetica; font-size: 12px; font-style: normal; font-variant-ligatures: normal; font-variant-caps: normal; font-weight: 400; letter-spacing: normal; orphans: 2; text-align: left; text-indent: 0px; text-transform: none; widows: 2; word-spacing: 0px; -webkit-text-stroke-width: 0px; background-color: rgb(251, 251, 251); text-decoration-thickness: initial; text-decoration-style: initial; text-decoration-color: initial; float: none; display: inline !important;&quot;&gt;OK Computer&lt;/span&gt;" style="text;whiteSpace=wrap;html=1;" vertex="1" parent="1">
          <mxGeometry x="25" y="230" width="85" height="30" as="geometry" />
        </mxCell>
        <mxCell id="6M-3ACbZJSzWJa0tOA0y-49" value="&lt;span style=&quot;color: rgb(0, 0, 0); font-family: Helvetica; font-size: 12px; font-style: normal; font-variant-ligatures: normal; font-variant-caps: normal; font-weight: 400; letter-spacing: normal; orphans: 2; text-align: left; text-indent: 0px; text-transform: none; widows: 2; word-spacing: 0px; -webkit-text-stroke-width: 0px; background-color: rgb(251, 251, 251); text-decoration-thickness: initial; text-decoration-style: initial; text-decoration-color: initial; float: none; display: inline !important;&quot;&gt;1997&lt;/span&gt;" style="text;whiteSpace=wrap;html=1;" vertex="1" parent="1">
          <mxGeometry x="40" y="250" width="40" height="40" as="geometry" />
        </mxCell>
        <mxCell id="6M-3ACbZJSzWJa0tOA0y-50" value="&lt;span style=&quot;color: rgb(0, 0, 0); font-family: Helvetica; font-size: 12px; font-style: normal; font-variant-ligatures: normal; font-variant-caps: normal; font-weight: 400; letter-spacing: normal; orphans: 2; text-align: left; text-indent: 0px; text-transform: none; widows: 2; word-spacing: 0px; -webkit-text-stroke-width: 0px; background-color: rgb(251, 251, 251); text-decoration-thickness: initial; text-decoration-style: initial; text-decoration-color: initial; float: none; display: inline !important;&quot;&gt;Sticky Fingers&lt;/span&gt;" style="text;whiteSpace=wrap;html=1;" vertex="1" parent="1">
          <mxGeometry x="185" y="230" width="85" height="30" as="geometry" />
        </mxCell>
        <mxCell id="6M-3ACbZJSzWJa0tOA0y-51" value="&lt;span style=&quot;color: rgb(0, 0, 0); font-family: Helvetica; font-size: 12px; font-style: normal; font-variant-ligatures: normal; font-variant-caps: normal; font-weight: 400; letter-spacing: normal; orphans: 2; text-align: left; text-indent: 0px; text-transform: none; widows: 2; word-spacing: 0px; -webkit-text-stroke-width: 0px; background-color: rgb(251, 251, 251); text-decoration-thickness: initial; text-decoration-style: initial; text-decoration-color: initial; float: none; display: inline !important;&quot;&gt;1971&lt;/span&gt;" style="text;whiteSpace=wrap;html=1;" vertex="1" parent="1">
          <mxGeometry x="200" y="250" width="40" height="40" as="geometry" />
        </mxCell>
        <mxCell id="6M-3ACbZJSzWJa0tOA0y-52" value="&lt;span style=&quot;color: rgb(0, 0, 0); font-family: Helvetica; font-size: 12px; font-style: normal; font-variant-ligatures: normal; font-variant-caps: normal; font-weight: 400; letter-spacing: normal; orphans: 2; text-align: left; text-indent: 0px; text-transform: none; widows: 2; word-spacing: 0px; -webkit-text-stroke-width: 0px; background-color: rgb(251, 251, 251); text-decoration-thickness: initial; text-decoration-style: initial; text-decoration-color: initial; float: none; display: inline !important;&quot;&gt;The Dark Side of the Moon&lt;/span&gt;" style="text;whiteSpace=wrap;html=1;" vertex="1" parent="1">
          <mxGeometry x="321" y="109" width="130" height="30" as="geometry" />
        </mxCell>
        <mxCell id="6M-3ACbZJSzWJa0tOA0y-53" value="&lt;span style=&quot;color: rgb(0, 0, 0); font-family: Helvetica; font-size: 12px; font-style: normal; font-variant-ligatures: normal; font-variant-caps: normal; font-weight: 400; letter-spacing: normal; orphans: 2; text-align: left; text-indent: 0px; text-transform: none; widows: 2; word-spacing: 0px; -webkit-text-stroke-width: 0px; background-color: rgb(251, 251, 251); text-decoration-thickness: initial; text-decoration-style: initial; text-decoration-color: initial; float: none; display: inline !important;&quot;&gt;1973&lt;/span&gt;" style="text;whiteSpace=wrap;html=1;" vertex="1" parent="1">
          <mxGeometry x="360" y="130" width="40" height="40" as="geometry" />
        </mxCell>
        <mxCell id="6M-3ACbZJSzWJa0tOA0y-54" value="&lt;span style=&quot;color: rgb(0, 0, 0); font-family: Helvetica; font-size: 12px; font-style: normal; font-variant-ligatures: normal; font-variant-caps: normal; font-weight: 400; letter-spacing: normal; orphans: 2; text-align: left; text-indent: 0px; text-transform: none; widows: 2; word-spacing: 0px; -webkit-text-stroke-width: 0px; background-color: rgb(251, 251, 251); text-decoration-thickness: initial; text-decoration-style: initial; text-decoration-color: initial; float: none; display: inline !important;&quot;&gt;Master of Puppets&lt;/span&gt;" style="text;whiteSpace=wrap;html=1;" vertex="1" parent="1">
          <mxGeometry x="490" y="110" width="110" height="30" as="geometry" />
        </mxCell>
        <mxCell id="6M-3ACbZJSzWJa0tOA0y-55" value="&lt;span style=&quot;color: rgb(0, 0, 0); font-family: Helvetica; font-size: 12px; font-style: normal; font-variant-ligatures: normal; font-variant-caps: normal; font-weight: 400; letter-spacing: normal; orphans: 2; text-align: left; text-indent: 0px; text-transform: none; widows: 2; word-spacing: 0px; -webkit-text-stroke-width: 0px; background-color: rgb(251, 251, 251); text-decoration-thickness: initial; text-decoration-style: initial; text-decoration-color: initial; float: none; display: inline !important;&quot;&gt;1986&lt;/span&gt;" style="text;whiteSpace=wrap;html=1;" vertex="1" parent="1">
          <mxGeometry x="520" y="130" width="40" height="40" as="geometry" />
        </mxCell>
        <mxCell id="6M-3ACbZJSzWJa0tOA0y-56" value="&lt;span style=&quot;color: rgb(0, 0, 0); font-family: Helvetica; font-size: 12px; font-style: normal; font-variant-ligatures: normal; font-variant-caps: normal; font-weight: 400; letter-spacing: normal; orphans: 2; text-align: left; text-indent: 0px; text-transform: none; widows: 2; word-spacing: 0px; -webkit-text-stroke-width: 0px; background-color: rgb(251, 251, 251); text-decoration-thickness: initial; text-decoration-style: initial; text-decoration-color: initial; float: none; display: inline !important;&quot;&gt;A Night at the Opera&lt;/span&gt;" style="text;whiteSpace=wrap;html=1;" vertex="1" parent="1">
          <mxGeometry x="349" y="221" width="70" height="30" as="geometry" />
        </mxCell>
        <mxCell id="6M-3ACbZJSzWJa0tOA0y-57" value="&lt;span style=&quot;color: rgb(0, 0, 0); font-family: Helvetica; font-size: 12px; font-style: normal; font-variant-ligatures: normal; font-variant-caps: normal; font-weight: 400; letter-spacing: normal; orphans: 2; text-align: left; text-indent: 0px; text-transform: none; widows: 2; word-spacing: 0px; -webkit-text-stroke-width: 0px; background-color: rgb(251, 251, 251); text-decoration-thickness: initial; text-decoration-style: initial; text-decoration-color: initial; float: none; display: inline !important;&quot;&gt;1975&lt;/span&gt;" style="text;whiteSpace=wrap;html=1;" vertex="1" parent="1">
          <mxGeometry x="360" y="250" width="40" height="40" as="geometry" />
        </mxCell>
        <mxCell id="6M-3ACbZJSzWJa0tOA0y-58" value="&lt;span style=&quot;color: rgb(0, 0, 0); font-family: Helvetica; font-size: 12px; font-style: normal; font-variant-ligatures: normal; font-variant-caps: normal; font-weight: 400; letter-spacing: normal; orphans: 2; text-align: left; text-indent: 0px; text-transform: none; widows: 2; word-spacing: 0px; -webkit-text-stroke-width: 0px; background-color: rgb(251, 251, 251); text-decoration-thickness: initial; text-decoration-style: initial; text-decoration-color: initial; float: none; display: inline !important;&quot;&gt;Nevermind&lt;/span&gt;" style="text;whiteSpace=wrap;html=1;" vertex="1" parent="1">
          <mxGeometry x="665" y="114" width="70" height="30" as="geometry" />
        </mxCell>
        <mxCell id="6M-3ACbZJSzWJa0tOA0y-59" value="&lt;span style=&quot;color: rgb(0, 0, 0); font-family: Helvetica; font-size: 12px; font-style: normal; font-variant-ligatures: normal; font-variant-caps: normal; font-weight: 400; letter-spacing: normal; orphans: 2; text-align: left; text-indent: 0px; text-transform: none; widows: 2; word-spacing: 0px; -webkit-text-stroke-width: 0px; background-color: rgb(251, 251, 251); text-decoration-thickness: initial; text-decoration-style: initial; text-decoration-color: initial; float: none; display: inline !important;&quot;&gt;1991&lt;/span&gt;" style="text;whiteSpace=wrap;html=1;" vertex="1" parent="1">
          <mxGeometry x="680" y="134" width="40" height="40" as="geometry" />
        </mxCell>
        <mxCell id="6M-3ACbZJSzWJa0tOA0y-60" value="&lt;span style=&quot;color: rgb(0, 0, 0); font-family: Helvetica; font-size: 12px; font-style: normal; font-variant-ligatures: normal; font-variant-caps: normal; font-weight: 400; letter-spacing: normal; orphans: 2; text-align: left; text-indent: 0px; text-transform: none; widows: 2; word-spacing: 0px; -webkit-text-stroke-width: 0px; background-color: rgb(251, 251, 251); text-decoration-thickness: initial; text-decoration-style: initial; text-decoration-color: initial; float: none; display: inline !important;&quot;&gt;Back in Black&lt;/span&gt;" style="text;whiteSpace=wrap;html=1;" vertex="1" parent="1">
          <mxGeometry x="505" y="230" width="75" height="30" as="geometry" />
        </mxCell>
        <mxCell id="6M-3ACbZJSzWJa0tOA0y-61" value="&lt;span style=&quot;color: rgb(0, 0, 0); font-family: Helvetica; font-size: 12px; font-style: normal; font-variant-ligatures: normal; font-variant-caps: normal; font-weight: 400; letter-spacing: normal; orphans: 2; text-align: left; text-indent: 0px; text-transform: none; widows: 2; word-spacing: 0px; -webkit-text-stroke-width: 0px; background-color: rgb(251, 251, 251); text-decoration-thickness: initial; text-decoration-style: initial; text-decoration-color: initial; float: none; display: inline !important;&quot;&gt;1980&lt;/span&gt;" style="text;whiteSpace=wrap;html=1;" vertex="1" parent="1">
          <mxGeometry x="520" y="250" width="40" height="40" as="geometry" />
        </mxCell>
        <mxCell id="6M-3ACbZJSzWJa0tOA0y-62" value="&lt;span style=&quot;color: rgb(0, 0, 0); font-family: Helvetica; font-size: 12px; font-style: normal; font-variant-ligatures: normal; font-variant-caps: normal; font-weight: 400; letter-spacing: normal; orphans: 2; text-align: left; text-indent: 0px; text-transform: none; widows: 2; word-spacing: 0px; -webkit-text-stroke-width: 0px; background-color: rgb(251, 251, 251); text-decoration-thickness: initial; text-decoration-style: initial; text-decoration-color: initial; float: none; display: inline !important;&quot;&gt;The Doors&lt;/span&gt;" style="text;whiteSpace=wrap;html=1;" vertex="1" parent="1">
          <mxGeometry x="665" y="230" width="70" height="30" as="geometry" />
        </mxCell>
        <mxCell id="6M-3ACbZJSzWJa0tOA0y-63" value="&lt;span style=&quot;color: rgb(0, 0, 0); font-family: Helvetica; font-size: 12px; font-style: normal; font-variant-ligatures: normal; font-variant-caps: normal; font-weight: 400; letter-spacing: normal; orphans: 2; text-align: left; text-indent: 0px; text-transform: none; widows: 2; word-spacing: 0px; -webkit-text-stroke-width: 0px; background-color: rgb(251, 251, 251); text-decoration-thickness: initial; text-decoration-style: initial; text-decoration-color: initial; float: none; display: inline !important;&quot;&gt;1967&lt;/span&gt;" style="text;whiteSpace=wrap;html=1;" vertex="1" parent="1">
          <mxGeometry x="680" y="250" width="40" height="40" as="geometry" />
        </mxCell>
      </root>
    </mxGraphModel>
  </diagram>
  <diagram id="ixITDoSpLJrpg3fFh12w" name="Узел Members">
    <mxGraphModel dx="1100" dy="809" grid="1" gridSize="10" guides="1" tooltips="1" connect="1" arrows="1" fold="1" page="1" pageScale="1" pageWidth="827" pageHeight="1169" math="0" shadow="0">
      <root>
        <mxCell id="0" />
        <mxCell id="1" parent="0" />
        <mxCell id="tVl9yWDo_RaDjU27ie34-1" value="" style="shape=hexagon;perimeter=hexagonPerimeter2;whiteSpace=wrap;html=1;fixedSize=1;" vertex="1" parent="1">
          <mxGeometry y="80" width="160" height="120" as="geometry" />
        </mxCell>
        <mxCell id="tVl9yWDo_RaDjU27ie34-2" value="" style="shape=hexagon;perimeter=hexagonPerimeter2;whiteSpace=wrap;html=1;fixedSize=1;" vertex="1" parent="1">
          <mxGeometry y="240" width="160" height="120" as="geometry" />
        </mxCell>
        <mxCell id="tVl9yWDo_RaDjU27ie34-3" value="" style="shape=hexagon;perimeter=hexagonPerimeter2;whiteSpace=wrap;html=1;fixedSize=1;" vertex="1" parent="1">
          <mxGeometry x="200" y="240" width="160" height="120" as="geometry" />
        </mxCell>
        <mxCell id="tVl9yWDo_RaDjU27ie34-4" value="" style="shape=hexagon;perimeter=hexagonPerimeter2;whiteSpace=wrap;html=1;fixedSize=1;" vertex="1" parent="1">
          <mxGeometry x="400" y="240" width="160" height="120" as="geometry" />
        </mxCell>
        <mxCell id="tVl9yWDo_RaDjU27ie34-5" value="" style="shape=hexagon;perimeter=hexagonPerimeter2;whiteSpace=wrap;html=1;fixedSize=1;" vertex="1" parent="1">
          <mxGeometry x="600" y="240" width="160" height="120" as="geometry" />
        </mxCell>
        <mxCell id="tVl9yWDo_RaDjU27ie34-6" value="" style="shape=hexagon;perimeter=hexagonPerimeter2;whiteSpace=wrap;html=1;fixedSize=1;" vertex="1" parent="1">
          <mxGeometry x="800" y="240" width="160" height="120" as="geometry" />
        </mxCell>
        <mxCell id="tVl9yWDo_RaDjU27ie34-7" value="" style="shape=hexagon;perimeter=hexagonPerimeter2;whiteSpace=wrap;html=1;fixedSize=1;" vertex="1" parent="1">
          <mxGeometry x="800" y="80" width="160" height="120" as="geometry" />
        </mxCell>
        <mxCell id="tVl9yWDo_RaDjU27ie34-8" value="" style="shape=hexagon;perimeter=hexagonPerimeter2;whiteSpace=wrap;html=1;fixedSize=1;" vertex="1" parent="1">
          <mxGeometry x="600" y="80" width="160" height="120" as="geometry" />
        </mxCell>
        <mxCell id="tVl9yWDo_RaDjU27ie34-9" value="" style="shape=hexagon;perimeter=hexagonPerimeter2;whiteSpace=wrap;html=1;fixedSize=1;" vertex="1" parent="1">
          <mxGeometry x="400" y="80" width="160" height="120" as="geometry" />
        </mxCell>
        <mxCell id="tVl9yWDo_RaDjU27ie34-10" value="" style="shape=hexagon;perimeter=hexagonPerimeter2;whiteSpace=wrap;html=1;fixedSize=1;" vertex="1" parent="1">
          <mxGeometry x="200" y="80" width="160" height="120" as="geometry" />
        </mxCell>
        <mxCell id="tVl9yWDo_RaDjU27ie34-11" value="" style="shape=hexagon;perimeter=hexagonPerimeter2;whiteSpace=wrap;html=1;fixedSize=1;" vertex="1" parent="1">
          <mxGeometry x="45" y="80" width="70" height="40" as="geometry" />
        </mxCell>
        <mxCell id="tVl9yWDo_RaDjU27ie34-12" value="" style="shape=hexagon;perimeter=hexagonPerimeter2;whiteSpace=wrap;html=1;fixedSize=1;" vertex="1" parent="1">
          <mxGeometry x="845" y="80" width="70" height="40" as="geometry" />
        </mxCell>
        <mxCell id="tVl9yWDo_RaDjU27ie34-13" value="" style="shape=hexagon;perimeter=hexagonPerimeter2;whiteSpace=wrap;html=1;fixedSize=1;" vertex="1" parent="1">
          <mxGeometry x="645" y="80" width="70" height="40" as="geometry" />
        </mxCell>
        <mxCell id="tVl9yWDo_RaDjU27ie34-14" value="" style="shape=hexagon;perimeter=hexagonPerimeter2;whiteSpace=wrap;html=1;fixedSize=1;" vertex="1" parent="1">
          <mxGeometry x="445" y="80" width="70" height="40" as="geometry" />
        </mxCell>
        <mxCell id="tVl9yWDo_RaDjU27ie34-15" value="" style="shape=hexagon;perimeter=hexagonPerimeter2;whiteSpace=wrap;html=1;fixedSize=1;" vertex="1" parent="1">
          <mxGeometry x="245" y="80" width="70" height="40" as="geometry" />
        </mxCell>
        <mxCell id="tVl9yWDo_RaDjU27ie34-16" value="" style="shape=hexagon;perimeter=hexagonPerimeter2;whiteSpace=wrap;html=1;fixedSize=1;" vertex="1" parent="1">
          <mxGeometry x="45" y="240" width="70" height="40" as="geometry" />
        </mxCell>
        <mxCell id="tVl9yWDo_RaDjU27ie34-17" value="" style="shape=hexagon;perimeter=hexagonPerimeter2;whiteSpace=wrap;html=1;fixedSize=1;" vertex="1" parent="1">
          <mxGeometry x="245" y="240" width="70" height="40" as="geometry" />
        </mxCell>
        <mxCell id="tVl9yWDo_RaDjU27ie34-18" value="" style="shape=hexagon;perimeter=hexagonPerimeter2;whiteSpace=wrap;html=1;fixedSize=1;" vertex="1" parent="1">
          <mxGeometry x="445" y="240" width="70" height="40" as="geometry" />
        </mxCell>
        <mxCell id="tVl9yWDo_RaDjU27ie34-19" value="" style="shape=hexagon;perimeter=hexagonPerimeter2;whiteSpace=wrap;html=1;fixedSize=1;" vertex="1" parent="1">
          <mxGeometry x="645" y="240" width="70" height="40" as="geometry" />
        </mxCell>
        <mxCell id="tVl9yWDo_RaDjU27ie34-20" value="" style="shape=hexagon;perimeter=hexagonPerimeter2;whiteSpace=wrap;html=1;fixedSize=1;" vertex="1" parent="1">
          <mxGeometry x="845" y="240" width="70" height="40" as="geometry" />
        </mxCell>
        <mxCell id="tVl9yWDo_RaDjU27ie34-21" value="&lt;font style=&quot;font-size: 18px;&quot;&gt;1&lt;/font&gt;" style="text;html=1;align=center;verticalAlign=middle;whiteSpace=wrap;rounded=0;" vertex="1" parent="1">
          <mxGeometry x="50" y="85" width="60" height="30" as="geometry" />
        </mxCell>
        <mxCell id="tVl9yWDo_RaDjU27ie34-22" value="&lt;font style=&quot;font-size: 18px;&quot;&gt;2&lt;/font&gt;" style="text;html=1;align=center;verticalAlign=middle;whiteSpace=wrap;rounded=0;" vertex="1" parent="1">
          <mxGeometry x="250" y="85" width="60" height="30" as="geometry" />
        </mxCell>
        <mxCell id="tVl9yWDo_RaDjU27ie34-23" value="&lt;font style=&quot;font-size: 18px;&quot;&gt;3&lt;/font&gt;" style="text;html=1;align=center;verticalAlign=middle;whiteSpace=wrap;rounded=0;" vertex="1" parent="1">
          <mxGeometry x="450" y="85" width="60" height="30" as="geometry" />
        </mxCell>
        <mxCell id="tVl9yWDo_RaDjU27ie34-24" value="&lt;font style=&quot;font-size: 18px;&quot;&gt;4&lt;/font&gt;" style="text;html=1;align=center;verticalAlign=middle;whiteSpace=wrap;rounded=0;" vertex="1" parent="1">
          <mxGeometry x="650" y="85" width="60" height="30" as="geometry" />
        </mxCell>
        <mxCell id="tVl9yWDo_RaDjU27ie34-25" value="&lt;font style=&quot;font-size: 18px;&quot;&gt;5&lt;/font&gt;" style="text;html=1;align=center;verticalAlign=middle;whiteSpace=wrap;rounded=0;" vertex="1" parent="1">
          <mxGeometry x="850" y="85" width="60" height="30" as="geometry" />
        </mxCell>
        <mxCell id="tVl9yWDo_RaDjU27ie34-26" value="&lt;font style=&quot;font-size: 18px;&quot;&gt;6&lt;/font&gt;" style="text;html=1;align=center;verticalAlign=middle;whiteSpace=wrap;rounded=0;" vertex="1" parent="1">
          <mxGeometry x="50" y="245" width="60" height="30" as="geometry" />
        </mxCell>
        <mxCell id="tVl9yWDo_RaDjU27ie34-27" value="&lt;font style=&quot;font-size: 18px;&quot;&gt;7&lt;/font&gt;" style="text;html=1;align=center;verticalAlign=middle;whiteSpace=wrap;rounded=0;" vertex="1" parent="1">
          <mxGeometry x="250" y="245" width="60" height="30" as="geometry" />
        </mxCell>
        <mxCell id="tVl9yWDo_RaDjU27ie34-28" value="&lt;font style=&quot;font-size: 18px;&quot;&gt;8&lt;/font&gt;" style="text;html=1;align=center;verticalAlign=middle;whiteSpace=wrap;rounded=0;" vertex="1" parent="1">
          <mxGeometry x="450" y="245" width="60" height="30" as="geometry" />
        </mxCell>
        <mxCell id="tVl9yWDo_RaDjU27ie34-29" value="&lt;font style=&quot;font-size: 18px;&quot;&gt;9&lt;/font&gt;" style="text;html=1;align=center;verticalAlign=middle;whiteSpace=wrap;rounded=0;" vertex="1" parent="1">
          <mxGeometry x="650" y="245" width="60" height="30" as="geometry" />
        </mxCell>
        <mxCell id="tVl9yWDo_RaDjU27ie34-30" value="&lt;font style=&quot;font-size: 18px;&quot;&gt;10&lt;/font&gt;" style="text;html=1;align=center;verticalAlign=middle;whiteSpace=wrap;rounded=0;" vertex="1" parent="1">
          <mxGeometry x="850" y="245" width="60" height="30" as="geometry" />
        </mxCell>
        <mxCell id="tVl9yWDo_RaDjU27ie34-31" value="&lt;span style=&quot;color: rgb(0, 0, 0); font-family: Helvetica; font-size: 12px; font-style: normal; font-variant-ligatures: normal; font-variant-caps: normal; font-weight: 400; letter-spacing: normal; orphans: 2; text-indent: 0px; text-transform: none; widows: 2; word-spacing: 0px; -webkit-text-stroke-width: 0px; background-color: rgb(251, 251, 251); text-decoration-thickness: initial; text-decoration-style: initial; text-decoration-color: initial; float: none; display: inline !important;&quot;&gt;John Lennon&lt;/span&gt;" style="text;whiteSpace=wrap;html=1;align=center;" vertex="1" parent="1">
          <mxGeometry x="31" y="120" width="100" height="40" as="geometry" />
        </mxCell>
        <mxCell id="tVl9yWDo_RaDjU27ie34-51" value="&lt;span style=&quot;color: rgb(0, 0, 0); font-family: Helvetica; font-size: 12px; font-style: normal; font-variant-ligatures: normal; font-variant-caps: normal; font-weight: 400; letter-spacing: normal; orphans: 2; text-indent: 0px; text-transform: none; widows: 2; word-spacing: 0px; -webkit-text-stroke-width: 0px; background-color: rgb(251, 251, 251); text-decoration-thickness: initial; text-decoration-style: initial; text-decoration-color: initial; float: none; display: inline !important;&quot;&gt;Vocals/Guitar&lt;/span&gt;" style="text;whiteSpace=wrap;html=1;align=center;" vertex="1" parent="1">
          <mxGeometry x="15" y="150" width="130" height="40" as="geometry" />
        </mxCell>
        <mxCell id="tVl9yWDo_RaDjU27ie34-61" value="&lt;span style=&quot;color: rgb(0, 0, 0); font-family: Helvetica; font-size: 12px; font-style: normal; font-variant-ligatures: normal; font-variant-caps: normal; font-weight: 400; letter-spacing: normal; orphans: 2; text-indent: 0px; text-transform: none; widows: 2; word-spacing: 0px; -webkit-text-stroke-width: 0px; background-color: rgb(251, 251, 251); text-decoration-thickness: initial; text-decoration-style: initial; text-decoration-color: initial; float: none; display: inline !important;&quot;&gt;Paul McCartney&lt;/span&gt;" style="text;whiteSpace=wrap;html=1;align=center;" vertex="1" parent="1">
          <mxGeometry x="231" y="120" width="100" height="40" as="geometry" />
        </mxCell>
        <mxCell id="tVl9yWDo_RaDjU27ie34-62" value="&lt;span style=&quot;color: rgb(0, 0, 0); font-family: Helvetica; font-size: 12px; font-style: normal; font-variant-ligatures: normal; font-variant-caps: normal; font-weight: 400; letter-spacing: normal; orphans: 2; text-indent: 0px; text-transform: none; widows: 2; word-spacing: 0px; -webkit-text-stroke-width: 0px; background-color: rgb(251, 251, 251); text-decoration-thickness: initial; text-decoration-style: initial; text-decoration-color: initial; float: none; display: inline !important;&quot;&gt;Vocals/Bass&lt;/span&gt;" style="text;whiteSpace=wrap;html=1;align=center;" vertex="1" parent="1">
          <mxGeometry x="215" y="150" width="130" height="40" as="geometry" />
        </mxCell>
        <mxCell id="tVl9yWDo_RaDjU27ie34-63" value="&lt;span style=&quot;color: rgb(0, 0, 0); font-family: Helvetica; font-size: 12px; font-style: normal; font-variant-ligatures: normal; font-variant-caps: normal; font-weight: 400; letter-spacing: normal; orphans: 2; text-indent: 0px; text-transform: none; widows: 2; word-spacing: 0px; -webkit-text-stroke-width: 0px; background-color: rgb(251, 251, 251); text-decoration-thickness: initial; text-decoration-style: initial; text-decoration-color: initial; float: none; display: inline !important;&quot;&gt;George Harrison&lt;/span&gt;" style="text;whiteSpace=wrap;html=1;align=center;" vertex="1" parent="1">
          <mxGeometry x="431" y="120" width="100" height="40" as="geometry" />
        </mxCell>
        <mxCell id="tVl9yWDo_RaDjU27ie34-64" value="&lt;span style=&quot;color: rgb(0, 0, 0); font-family: Helvetica; font-size: 12px; font-style: normal; font-variant-ligatures: normal; font-variant-caps: normal; font-weight: 400; letter-spacing: normal; orphans: 2; text-indent: 0px; text-transform: none; widows: 2; word-spacing: 0px; -webkit-text-stroke-width: 0px; background-color: rgb(251, 251, 251); text-decoration-thickness: initial; text-decoration-style: initial; text-decoration-color: initial; float: none; display: inline !important;&quot;&gt;Guitar&lt;/span&gt;" style="text;whiteSpace=wrap;html=1;align=center;" vertex="1" parent="1">
          <mxGeometry x="415" y="150" width="130" height="40" as="geometry" />
        </mxCell>
        <mxCell id="tVl9yWDo_RaDjU27ie34-65" value="&lt;span style=&quot;color: rgb(0, 0, 0); font-family: Helvetica; font-size: 12px; font-style: normal; font-variant-ligatures: normal; font-variant-caps: normal; font-weight: 400; letter-spacing: normal; orphans: 2; text-indent: 0px; text-transform: none; widows: 2; word-spacing: 0px; -webkit-text-stroke-width: 0px; background-color: rgb(251, 251, 251); text-decoration-thickness: initial; text-decoration-style: initial; text-decoration-color: initial; float: none; display: inline !important;&quot;&gt;Ringo Starr&lt;/span&gt;" style="text;whiteSpace=wrap;html=1;align=center;" vertex="1" parent="1">
          <mxGeometry x="631" y="120" width="100" height="40" as="geometry" />
        </mxCell>
        <mxCell id="tVl9yWDo_RaDjU27ie34-66" value="&lt;span style=&quot;color: rgb(0, 0, 0); font-family: Helvetica; font-size: 12px; font-style: normal; font-variant-ligatures: normal; font-variant-caps: normal; font-weight: 400; letter-spacing: normal; orphans: 2; text-indent: 0px; text-transform: none; widows: 2; word-spacing: 0px; -webkit-text-stroke-width: 0px; background-color: rgb(251, 251, 251); text-decoration-thickness: initial; text-decoration-style: initial; text-decoration-color: initial; float: none; display: inline !important;&quot;&gt;Drums&lt;/span&gt;" style="text;whiteSpace=wrap;html=1;align=center;" vertex="1" parent="1">
          <mxGeometry x="615" y="150" width="130" height="40" as="geometry" />
        </mxCell>
        <mxCell id="tVl9yWDo_RaDjU27ie34-67" value="&lt;span style=&quot;color: rgb(0, 0, 0); font-family: Helvetica; font-size: 12px; font-style: normal; font-variant-ligatures: normal; font-variant-caps: normal; font-weight: 400; letter-spacing: normal; orphans: 2; text-indent: 0px; text-transform: none; widows: 2; word-spacing: 0px; -webkit-text-stroke-width: 0px; background-color: rgb(251, 251, 251); text-decoration-thickness: initial; text-decoration-style: initial; text-decoration-color: initial; float: none; display: inline !important;&quot;&gt;Robert Plant&lt;/span&gt;" style="text;whiteSpace=wrap;html=1;align=center;" vertex="1" parent="1">
          <mxGeometry x="831" y="120" width="100" height="40" as="geometry" />
        </mxCell>
        <mxCell id="tVl9yWDo_RaDjU27ie34-68" value="&lt;span style=&quot;color: rgb(0, 0, 0); font-family: Helvetica; font-size: 12px; font-style: normal; font-variant-ligatures: normal; font-variant-caps: normal; font-weight: 400; letter-spacing: normal; orphans: 2; text-indent: 0px; text-transform: none; widows: 2; word-spacing: 0px; -webkit-text-stroke-width: 0px; background-color: rgb(251, 251, 251); text-decoration-thickness: initial; text-decoration-style: initial; text-decoration-color: initial; float: none; display: inline !important;&quot;&gt;Vocals&lt;/span&gt;" style="text;whiteSpace=wrap;html=1;align=center;" vertex="1" parent="1">
          <mxGeometry x="815" y="150" width="130" height="40" as="geometry" />
        </mxCell>
        <mxCell id="tVl9yWDo_RaDjU27ie34-69" value="&lt;span style=&quot;color: rgb(0, 0, 0); font-family: Helvetica; font-size: 12px; font-style: normal; font-variant-ligatures: normal; font-variant-caps: normal; font-weight: 400; letter-spacing: normal; orphans: 2; text-indent: 0px; text-transform: none; widows: 2; word-spacing: 0px; -webkit-text-stroke-width: 0px; background-color: rgb(251, 251, 251); text-decoration-thickness: initial; text-decoration-style: initial; text-decoration-color: initial; float: none; display: inline !important;&quot;&gt;Jimmy Page&lt;/span&gt;" style="text;whiteSpace=wrap;html=1;align=center;" vertex="1" parent="1">
          <mxGeometry x="31" y="280" width="100" height="40" as="geometry" />
        </mxCell>
        <mxCell id="tVl9yWDo_RaDjU27ie34-70" value="&lt;span style=&quot;color: rgb(0, 0, 0); font-family: Helvetica; font-size: 12px; font-style: normal; font-variant-ligatures: normal; font-variant-caps: normal; font-weight: 400; letter-spacing: normal; orphans: 2; text-indent: 0px; text-transform: none; widows: 2; word-spacing: 0px; -webkit-text-stroke-width: 0px; background-color: rgb(251, 251, 251); text-decoration-thickness: initial; text-decoration-style: initial; text-decoration-color: initial; float: none; display: inline !important;&quot;&gt;Guitar&lt;/span&gt;" style="text;whiteSpace=wrap;html=1;align=center;" vertex="1" parent="1">
          <mxGeometry x="15" y="310" width="130" height="40" as="geometry" />
        </mxCell>
        <mxCell id="tVl9yWDo_RaDjU27ie34-71" value="&lt;span style=&quot;color: rgb(0, 0, 0); font-family: Helvetica; font-size: 12px; font-style: normal; font-variant-ligatures: normal; font-variant-caps: normal; font-weight: 400; letter-spacing: normal; orphans: 2; text-indent: 0px; text-transform: none; widows: 2; word-spacing: 0px; -webkit-text-stroke-width: 0px; background-color: rgb(251, 251, 251); text-decoration-thickness: initial; text-decoration-style: initial; text-decoration-color: initial; float: none; display: inline !important;&quot;&gt;John Paul Jones&lt;/span&gt;" style="text;whiteSpace=wrap;html=1;align=center;" vertex="1" parent="1">
          <mxGeometry x="231" y="280" width="100" height="40" as="geometry" />
        </mxCell>
        <mxCell id="tVl9yWDo_RaDjU27ie34-72" value="&lt;span style=&quot;color: rgb(0, 0, 0); font-family: Helvetica; font-size: 12px; font-style: normal; font-variant-ligatures: normal; font-variant-caps: normal; font-weight: 400; letter-spacing: normal; orphans: 2; text-indent: 0px; text-transform: none; widows: 2; word-spacing: 0px; -webkit-text-stroke-width: 0px; background-color: rgb(251, 251, 251); text-decoration-thickness: initial; text-decoration-style: initial; text-decoration-color: initial; float: none; display: inline !important;&quot;&gt;Bass&lt;/span&gt;" style="text;whiteSpace=wrap;html=1;align=center;" vertex="1" parent="1">
          <mxGeometry x="215" y="310" width="130" height="40" as="geometry" />
        </mxCell>
        <mxCell id="tVl9yWDo_RaDjU27ie34-73" value="&lt;span style=&quot;color: rgb(0, 0, 0); font-family: Helvetica; font-size: 12px; font-style: normal; font-variant-ligatures: normal; font-variant-caps: normal; font-weight: 400; letter-spacing: normal; orphans: 2; text-indent: 0px; text-transform: none; widows: 2; word-spacing: 0px; -webkit-text-stroke-width: 0px; background-color: rgb(251, 251, 251); text-decoration-thickness: initial; text-decoration-style: initial; text-decoration-color: initial; float: none; display: inline !important;&quot;&gt;John Bonham&lt;/span&gt;" style="text;whiteSpace=wrap;html=1;align=center;" vertex="1" parent="1">
          <mxGeometry x="431" y="280" width="100" height="40" as="geometry" />
        </mxCell>
        <mxCell id="tVl9yWDo_RaDjU27ie34-74" value="&lt;span style=&quot;color: rgb(0, 0, 0); font-family: Helvetica; font-size: 12px; font-style: normal; font-variant-ligatures: normal; font-variant-caps: normal; font-weight: 400; letter-spacing: normal; orphans: 2; text-indent: 0px; text-transform: none; widows: 2; word-spacing: 0px; -webkit-text-stroke-width: 0px; background-color: rgb(251, 251, 251); text-decoration-thickness: initial; text-decoration-style: initial; text-decoration-color: initial; float: none; display: inline !important;&quot;&gt;Drums&lt;/span&gt;" style="text;whiteSpace=wrap;html=1;align=center;" vertex="1" parent="1">
          <mxGeometry x="415" y="310" width="130" height="40" as="geometry" />
        </mxCell>
        <mxCell id="tVl9yWDo_RaDjU27ie34-75" value="&lt;span style=&quot;color: rgb(0, 0, 0); font-family: Helvetica; font-size: 12px; font-style: normal; font-variant-ligatures: normal; font-variant-caps: normal; font-weight: 400; letter-spacing: normal; orphans: 2; text-indent: 0px; text-transform: none; widows: 2; word-spacing: 0px; -webkit-text-stroke-width: 0px; background-color: rgb(251, 251, 251); text-decoration-thickness: initial; text-decoration-style: initial; text-decoration-color: initial; float: none; display: inline !important;&quot;&gt;David Gilmour&lt;/span&gt;" style="text;whiteSpace=wrap;html=1;align=center;" vertex="1" parent="1">
          <mxGeometry x="631" y="280" width="100" height="40" as="geometry" />
        </mxCell>
        <mxCell id="tVl9yWDo_RaDjU27ie34-76" value="&lt;span style=&quot;color: rgb(0, 0, 0); font-family: Helvetica; font-size: 12px; font-style: normal; font-variant-ligatures: normal; font-variant-caps: normal; font-weight: 400; letter-spacing: normal; orphans: 2; text-indent: 0px; text-transform: none; widows: 2; word-spacing: 0px; -webkit-text-stroke-width: 0px; background-color: rgb(251, 251, 251); text-decoration-thickness: initial; text-decoration-style: initial; text-decoration-color: initial; float: none; display: inline !important;&quot;&gt;Guitar/Vocals&lt;/span&gt;" style="text;whiteSpace=wrap;html=1;align=center;" vertex="1" parent="1">
          <mxGeometry x="615" y="310" width="130" height="40" as="geometry" />
        </mxCell>
        <mxCell id="tVl9yWDo_RaDjU27ie34-77" value="&lt;span style=&quot;color: rgb(0, 0, 0); font-family: Helvetica; font-size: 12px; font-style: normal; font-variant-ligatures: normal; font-variant-caps: normal; font-weight: 400; letter-spacing: normal; orphans: 2; text-indent: 0px; text-transform: none; widows: 2; word-spacing: 0px; -webkit-text-stroke-width: 0px; background-color: rgb(251, 251, 251); text-decoration-thickness: initial; text-decoration-style: initial; text-decoration-color: initial; float: none; display: inline !important;&quot;&gt;Roger Waters&lt;/span&gt;" style="text;whiteSpace=wrap;html=1;align=center;" vertex="1" parent="1">
          <mxGeometry x="831" y="280" width="100" height="40" as="geometry" />
        </mxCell>
        <mxCell id="tVl9yWDo_RaDjU27ie34-78" value="&lt;span style=&quot;color: rgb(0, 0, 0); font-family: Helvetica; font-size: 12px; font-style: normal; font-variant-ligatures: normal; font-variant-caps: normal; font-weight: 400; letter-spacing: normal; orphans: 2; text-indent: 0px; text-transform: none; widows: 2; word-spacing: 0px; -webkit-text-stroke-width: 0px; background-color: rgb(251, 251, 251); text-decoration-thickness: initial; text-decoration-style: initial; text-decoration-color: initial; float: none; display: inline !important;&quot;&gt;Bass/Vocals&lt;/span&gt;" style="text;whiteSpace=wrap;html=1;align=center;" vertex="1" parent="1">
          <mxGeometry x="815" y="310" width="130" height="40" as="geometry" />
        </mxCell>
      </root>
    </mxGraphModel>
  </diagram>
  <diagram id="rsOrP-0q92bndHSm8YSV" name="Ребро MemberOfBand">
    <mxGraphModel dx="2398" dy="1156" grid="1" gridSize="10" guides="1" tooltips="1" connect="1" arrows="1" fold="1" page="1" pageScale="1" pageWidth="827" pageHeight="1169" math="0" shadow="0">
      <root>
        <mxCell id="0" />
        <mxCell id="1" parent="0" />
        <mxCell id="K0Isr7wFFPX_4oUO0wUB-1" value="" style="ellipse;whiteSpace=wrap;html=1;" vertex="1" parent="1">
          <mxGeometry x="-350" y="310" width="120" height="120" as="geometry" />
        </mxCell>
        <mxCell id="K0Isr7wFFPX_4oUO0wUB-4" value="" style="ellipse;whiteSpace=wrap;html=1;" vertex="1" parent="1">
          <mxGeometry x="-70" y="610" width="120" height="120" as="geometry" />
        </mxCell>
        <mxCell id="K0Isr7wFFPX_4oUO0wUB-5" value="" style="ellipse;whiteSpace=wrap;html=1;" vertex="1" parent="1">
          <mxGeometry x="325" y="340" width="120" height="120" as="geometry" />
        </mxCell>
        <mxCell id="K0Isr7wFFPX_4oUO0wUB-11" value="" style="ellipse;whiteSpace=wrap;html=1;" vertex="1" parent="1">
          <mxGeometry x="-310" y="310" width="40" height="40" as="geometry" />
        </mxCell>
        <mxCell id="K0Isr7wFFPX_4oUO0wUB-14" value="" style="ellipse;whiteSpace=wrap;html=1;" vertex="1" parent="1">
          <mxGeometry x="-30" y="610" width="40" height="40" as="geometry" />
        </mxCell>
        <mxCell id="K0Isr7wFFPX_4oUO0wUB-15" value="" style="ellipse;whiteSpace=wrap;html=1;" vertex="1" parent="1">
          <mxGeometry x="365" y="340" width="40" height="40" as="geometry" />
        </mxCell>
        <mxCell id="K0Isr7wFFPX_4oUO0wUB-21" value="&lt;font style=&quot;font-size: 18px;&quot;&gt;1&lt;/font&gt;" style="text;html=1;align=center;verticalAlign=middle;whiteSpace=wrap;rounded=0;" vertex="1" parent="1">
          <mxGeometry x="-320" y="315" width="60" height="30" as="geometry" />
        </mxCell>
        <mxCell id="K0Isr7wFFPX_4oUO0wUB-28" value="&lt;font style=&quot;font-size: 18px;&quot;&gt;3&lt;/font&gt;" style="text;html=1;align=center;verticalAlign=middle;whiteSpace=wrap;rounded=0;" vertex="1" parent="1">
          <mxGeometry x="-40" y="610" width="60" height="30" as="geometry" />
        </mxCell>
        <mxCell id="K0Isr7wFFPX_4oUO0wUB-29" value="&lt;font style=&quot;font-size: 18px;&quot;&gt;2&lt;/font&gt;" style="text;html=1;align=center;verticalAlign=middle;whiteSpace=wrap;rounded=0;" vertex="1" parent="1">
          <mxGeometry x="355" y="340" width="60" height="30" as="geometry" />
        </mxCell>
        <mxCell id="K0Isr7wFFPX_4oUO0wUB-31" value="&lt;span style=&quot;color: rgb(0, 0, 0); font-family: Helvetica; font-size: 12px; font-style: normal; font-variant-ligatures: normal; font-variant-caps: normal; font-weight: 400; letter-spacing: normal; orphans: 2; text-align: left; text-indent: 0px; text-transform: none; widows: 2; word-spacing: 0px; -webkit-text-stroke-width: 0px; background-color: rgb(251, 251, 251); text-decoration-thickness: initial; text-decoration-style: initial; text-decoration-color: initial; float: none; display: inline !important;&quot;&gt;The Beatles&lt;/span&gt;" style="text;whiteSpace=wrap;html=1;" vertex="1" parent="1">
          <mxGeometry x="-325" y="355" width="70" height="30" as="geometry" />
        </mxCell>
        <mxCell id="K0Isr7wFFPX_4oUO0wUB-32" value="&lt;span style=&quot;color: rgb(0, 0, 0); font-family: Helvetica; font-size: 12px; font-style: normal; font-variant-ligatures: normal; font-variant-caps: normal; font-weight: 400; letter-spacing: normal; orphans: 2; text-align: left; text-indent: 0px; text-transform: none; widows: 2; word-spacing: 0px; -webkit-text-stroke-width: 0px; background-color: rgb(251, 251, 251); text-decoration-thickness: initial; text-decoration-style: initial; text-decoration-color: initial; float: none; display: inline !important;&quot;&gt;Rock&lt;/span&gt;" style="text;whiteSpace=wrap;html=1;" vertex="1" parent="1">
          <mxGeometry x="-307.5" y="390" width="35" height="20" as="geometry" />
        </mxCell>
        <mxCell id="K0Isr7wFFPX_4oUO0wUB-33" value="&lt;span style=&quot;color: rgb(0, 0, 0); font-family: Helvetica; font-size: 12px; font-style: normal; font-variant-ligatures: normal; font-variant-caps: normal; font-weight: 400; letter-spacing: normal; orphans: 2; text-align: left; text-indent: 0px; text-transform: none; widows: 2; word-spacing: 0px; -webkit-text-stroke-width: 0px; background-color: rgb(251, 251, 251); text-decoration-thickness: initial; text-decoration-style: initial; text-decoration-color: initial; float: none; display: inline !important;&quot;&gt;Led Zeppelin&lt;/span&gt;" style="text;whiteSpace=wrap;html=1;" vertex="1" parent="1">
          <mxGeometry x="350" y="380" width="75" height="30" as="geometry" />
        </mxCell>
        <mxCell id="K0Isr7wFFPX_4oUO0wUB-34" value="&lt;span style=&quot;color: rgb(0, 0, 0); font-family: Helvetica; font-size: 12px; font-style: normal; font-variant-ligatures: normal; font-variant-caps: normal; font-weight: 400; letter-spacing: normal; orphans: 2; text-align: left; text-indent: 0px; text-transform: none; widows: 2; word-spacing: 0px; -webkit-text-stroke-width: 0px; background-color: rgb(251, 251, 251); text-decoration-thickness: initial; text-decoration-style: initial; text-decoration-color: initial; float: none; display: inline !important;&quot;&gt;Rock&lt;/span&gt;" style="text;whiteSpace=wrap;html=1;" vertex="1" parent="1">
          <mxGeometry x="367.5" y="415" width="35" height="20" as="geometry" />
        </mxCell>
        <mxCell id="K0Isr7wFFPX_4oUO0wUB-39" value="&lt;span style=&quot;color: rgb(0, 0, 0); font-family: Helvetica; font-size: 12px; font-style: normal; font-variant-ligatures: normal; font-variant-caps: normal; font-weight: 400; letter-spacing: normal; orphans: 2; text-align: left; text-indent: 0px; text-transform: none; widows: 2; word-spacing: 0px; -webkit-text-stroke-width: 0px; background-color: rgb(251, 251, 251); text-decoration-thickness: initial; text-decoration-style: initial; text-decoration-color: initial; float: none; display: inline !important;&quot;&gt;Pink Floyd&lt;/span&gt;" style="text;whiteSpace=wrap;html=1;" vertex="1" parent="1">
          <mxGeometry x="-45" y="650" width="70" height="30" as="geometry" />
        </mxCell>
        <mxCell id="K0Isr7wFFPX_4oUO0wUB-40" value="&lt;span style=&quot;color: rgb(0, 0, 0); font-family: Helvetica; font-size: 12px; font-style: normal; font-variant-ligatures: normal; font-variant-caps: normal; font-weight: 400; letter-spacing: normal; orphans: 2; text-align: left; text-indent: 0px; text-transform: none; widows: 2; word-spacing: 0px; -webkit-text-stroke-width: 0px; background-color: rgb(251, 251, 251); text-decoration-thickness: initial; text-decoration-style: initial; text-decoration-color: initial; float: none; display: inline !important;&quot;&gt;Progressive Rock&lt;/span&gt;" style="text;whiteSpace=wrap;html=1;" vertex="1" parent="1">
          <mxGeometry x="-47" y="675" width="80" height="20" as="geometry" />
        </mxCell>
        <mxCell id="33AM2IQ4MYA4YGEBKCbi-1" value="" style="shape=hexagon;perimeter=hexagonPerimeter2;whiteSpace=wrap;html=1;fixedSize=1;" vertex="1" parent="1">
          <mxGeometry x="-170" y="310" width="160" height="120" as="geometry" />
        </mxCell>
        <mxCell id="33AM2IQ4MYA4YGEBKCbi-2" value="" style="shape=hexagon;perimeter=hexagonPerimeter2;whiteSpace=wrap;html=1;fixedSize=1;" vertex="1" parent="1">
          <mxGeometry x="120" y="335" width="160" height="120" as="geometry" />
        </mxCell>
        <mxCell id="33AM2IQ4MYA4YGEBKCbi-3" value="" style="shape=hexagon;perimeter=hexagonPerimeter2;whiteSpace=wrap;html=1;fixedSize=1;" vertex="1" parent="1">
          <mxGeometry x="490" y="345" width="160" height="120" as="geometry" />
        </mxCell>
        <mxCell id="33AM2IQ4MYA4YGEBKCbi-4" value="" style="shape=hexagon;perimeter=hexagonPerimeter2;whiteSpace=wrap;html=1;fixedSize=1;" vertex="1" parent="1">
          <mxGeometry x="305" y="500" width="160" height="120" as="geometry" />
        </mxCell>
        <mxCell id="33AM2IQ4MYA4YGEBKCbi-5" value="" style="shape=hexagon;perimeter=hexagonPerimeter2;whiteSpace=wrap;html=1;fixedSize=1;" vertex="1" parent="1">
          <mxGeometry x="-187" y="820" width="160" height="120" as="geometry" />
        </mxCell>
        <mxCell id="33AM2IQ4MYA4YGEBKCbi-6" value="" style="shape=hexagon;perimeter=hexagonPerimeter2;whiteSpace=wrap;html=1;fixedSize=1;" vertex="1" parent="1">
          <mxGeometry x="13" y="820" width="160" height="120" as="geometry" />
        </mxCell>
        <mxCell id="33AM2IQ4MYA4YGEBKCbi-7" value="" style="shape=hexagon;perimeter=hexagonPerimeter2;whiteSpace=wrap;html=1;fixedSize=1;" vertex="1" parent="1">
          <mxGeometry x="305" y="200" width="160" height="120" as="geometry" />
        </mxCell>
        <mxCell id="33AM2IQ4MYA4YGEBKCbi-8" value="" style="shape=hexagon;perimeter=hexagonPerimeter2;whiteSpace=wrap;html=1;fixedSize=1;" vertex="1" parent="1">
          <mxGeometry x="-370" y="465" width="160" height="120" as="geometry" />
        </mxCell>
        <mxCell id="33AM2IQ4MYA4YGEBKCbi-9" value="" style="shape=hexagon;perimeter=hexagonPerimeter2;whiteSpace=wrap;html=1;fixedSize=1;" vertex="1" parent="1">
          <mxGeometry x="-560" y="310" width="160" height="120" as="geometry" />
        </mxCell>
        <mxCell id="33AM2IQ4MYA4YGEBKCbi-10" value="" style="shape=hexagon;perimeter=hexagonPerimeter2;whiteSpace=wrap;html=1;fixedSize=1;" vertex="1" parent="1">
          <mxGeometry x="-370" y="150" width="160" height="120" as="geometry" />
        </mxCell>
        <mxCell id="33AM2IQ4MYA4YGEBKCbi-11" value="" style="shape=hexagon;perimeter=hexagonPerimeter2;whiteSpace=wrap;html=1;fixedSize=1;" vertex="1" parent="1">
          <mxGeometry x="-125" y="310" width="70" height="40" as="geometry" />
        </mxCell>
        <mxCell id="33AM2IQ4MYA4YGEBKCbi-12" value="" style="shape=hexagon;perimeter=hexagonPerimeter2;whiteSpace=wrap;html=1;fixedSize=1;" vertex="1" parent="1">
          <mxGeometry x="350" y="200" width="70" height="40" as="geometry" />
        </mxCell>
        <mxCell id="33AM2IQ4MYA4YGEBKCbi-13" value="" style="shape=hexagon;perimeter=hexagonPerimeter2;whiteSpace=wrap;html=1;fixedSize=1;" vertex="1" parent="1">
          <mxGeometry x="-325" y="465" width="70" height="40" as="geometry" />
        </mxCell>
        <mxCell id="33AM2IQ4MYA4YGEBKCbi-14" value="" style="shape=hexagon;perimeter=hexagonPerimeter2;whiteSpace=wrap;html=1;fixedSize=1;" vertex="1" parent="1">
          <mxGeometry x="-515" y="310" width="70" height="40" as="geometry" />
        </mxCell>
        <mxCell id="33AM2IQ4MYA4YGEBKCbi-15" value="" style="shape=hexagon;perimeter=hexagonPerimeter2;whiteSpace=wrap;html=1;fixedSize=1;" vertex="1" parent="1">
          <mxGeometry x="-325" y="150" width="70" height="40" as="geometry" />
        </mxCell>
        <mxCell id="33AM2IQ4MYA4YGEBKCbi-16" value="" style="shape=hexagon;perimeter=hexagonPerimeter2;whiteSpace=wrap;html=1;fixedSize=1;" vertex="1" parent="1">
          <mxGeometry x="165" y="335" width="70" height="40" as="geometry" />
        </mxCell>
        <mxCell id="33AM2IQ4MYA4YGEBKCbi-17" value="" style="shape=hexagon;perimeter=hexagonPerimeter2;whiteSpace=wrap;html=1;fixedSize=1;" vertex="1" parent="1">
          <mxGeometry x="535" y="345" width="70" height="40" as="geometry" />
        </mxCell>
        <mxCell id="33AM2IQ4MYA4YGEBKCbi-18" value="" style="shape=hexagon;perimeter=hexagonPerimeter2;whiteSpace=wrap;html=1;fixedSize=1;" vertex="1" parent="1">
          <mxGeometry x="350" y="500" width="70" height="40" as="geometry" />
        </mxCell>
        <mxCell id="33AM2IQ4MYA4YGEBKCbi-19" value="" style="shape=hexagon;perimeter=hexagonPerimeter2;whiteSpace=wrap;html=1;fixedSize=1;" vertex="1" parent="1">
          <mxGeometry x="-142" y="820" width="70" height="40" as="geometry" />
        </mxCell>
        <mxCell id="33AM2IQ4MYA4YGEBKCbi-20" value="" style="shape=hexagon;perimeter=hexagonPerimeter2;whiteSpace=wrap;html=1;fixedSize=1;" vertex="1" parent="1">
          <mxGeometry x="58" y="820" width="70" height="40" as="geometry" />
        </mxCell>
        <mxCell id="33AM2IQ4MYA4YGEBKCbi-21" value="&lt;font style=&quot;font-size: 18px;&quot;&gt;1&lt;/font&gt;" style="text;html=1;align=center;verticalAlign=middle;whiteSpace=wrap;rounded=0;" vertex="1" parent="1">
          <mxGeometry x="-120" y="315" width="60" height="30" as="geometry" />
        </mxCell>
        <mxCell id="33AM2IQ4MYA4YGEBKCbi-22" value="&lt;font style=&quot;font-size: 18px;&quot;&gt;2&lt;/font&gt;" style="text;html=1;align=center;verticalAlign=middle;whiteSpace=wrap;rounded=0;" vertex="1" parent="1">
          <mxGeometry x="-320" y="155" width="60" height="30" as="geometry" />
        </mxCell>
        <mxCell id="33AM2IQ4MYA4YGEBKCbi-23" value="&lt;font style=&quot;font-size: 18px;&quot;&gt;3&lt;/font&gt;" style="text;html=1;align=center;verticalAlign=middle;whiteSpace=wrap;rounded=0;" vertex="1" parent="1">
          <mxGeometry x="-510" y="315" width="60" height="30" as="geometry" />
        </mxCell>
        <mxCell id="33AM2IQ4MYA4YGEBKCbi-24" value="&lt;font style=&quot;font-size: 18px;&quot;&gt;4&lt;/font&gt;" style="text;html=1;align=center;verticalAlign=middle;whiteSpace=wrap;rounded=0;" vertex="1" parent="1">
          <mxGeometry x="-320" y="470" width="60" height="30" as="geometry" />
        </mxCell>
        <mxCell id="33AM2IQ4MYA4YGEBKCbi-25" value="&lt;font style=&quot;font-size: 18px;&quot;&gt;5&lt;/font&gt;" style="text;html=1;align=center;verticalAlign=middle;whiteSpace=wrap;rounded=0;" vertex="1" parent="1">
          <mxGeometry x="355" y="205" width="60" height="30" as="geometry" />
        </mxCell>
        <mxCell id="33AM2IQ4MYA4YGEBKCbi-26" value="&lt;font style=&quot;font-size: 18px;&quot;&gt;6&lt;/font&gt;" style="text;html=1;align=center;verticalAlign=middle;whiteSpace=wrap;rounded=0;" vertex="1" parent="1">
          <mxGeometry x="170" y="340" width="60" height="30" as="geometry" />
        </mxCell>
        <mxCell id="33AM2IQ4MYA4YGEBKCbi-27" value="&lt;font style=&quot;font-size: 18px;&quot;&gt;7&lt;/font&gt;" style="text;html=1;align=center;verticalAlign=middle;whiteSpace=wrap;rounded=0;" vertex="1" parent="1">
          <mxGeometry x="540" y="350" width="60" height="30" as="geometry" />
        </mxCell>
        <mxCell id="33AM2IQ4MYA4YGEBKCbi-28" value="&lt;font style=&quot;font-size: 18px;&quot;&gt;8&lt;/font&gt;" style="text;html=1;align=center;verticalAlign=middle;whiteSpace=wrap;rounded=0;" vertex="1" parent="1">
          <mxGeometry x="355" y="505" width="60" height="30" as="geometry" />
        </mxCell>
        <mxCell id="33AM2IQ4MYA4YGEBKCbi-29" value="&lt;font style=&quot;font-size: 18px;&quot;&gt;9&lt;/font&gt;" style="text;html=1;align=center;verticalAlign=middle;whiteSpace=wrap;rounded=0;" vertex="1" parent="1">
          <mxGeometry x="-137" y="825" width="60" height="30" as="geometry" />
        </mxCell>
        <mxCell id="33AM2IQ4MYA4YGEBKCbi-30" value="&lt;font style=&quot;font-size: 18px;&quot;&gt;10&lt;/font&gt;" style="text;html=1;align=center;verticalAlign=middle;whiteSpace=wrap;rounded=0;" vertex="1" parent="1">
          <mxGeometry x="63" y="825" width="60" height="30" as="geometry" />
        </mxCell>
        <mxCell id="33AM2IQ4MYA4YGEBKCbi-31" value="&lt;span style=&quot;color: rgb(0, 0, 0); font-family: Helvetica; font-size: 12px; font-style: normal; font-variant-ligatures: normal; font-variant-caps: normal; font-weight: 400; letter-spacing: normal; orphans: 2; text-indent: 0px; text-transform: none; widows: 2; word-spacing: 0px; -webkit-text-stroke-width: 0px; background-color: rgb(251, 251, 251); text-decoration-thickness: initial; text-decoration-style: initial; text-decoration-color: initial; float: none; display: inline !important;&quot;&gt;John Lennon&lt;/span&gt;" style="text;whiteSpace=wrap;html=1;align=center;" vertex="1" parent="1">
          <mxGeometry x="-139" y="350" width="100" height="40" as="geometry" />
        </mxCell>
        <mxCell id="33AM2IQ4MYA4YGEBKCbi-32" value="&lt;span style=&quot;color: rgb(0, 0, 0); font-family: Helvetica; font-size: 12px; font-style: normal; font-variant-ligatures: normal; font-variant-caps: normal; font-weight: 400; letter-spacing: normal; orphans: 2; text-indent: 0px; text-transform: none; widows: 2; word-spacing: 0px; -webkit-text-stroke-width: 0px; background-color: rgb(251, 251, 251); text-decoration-thickness: initial; text-decoration-style: initial; text-decoration-color: initial; float: none; display: inline !important;&quot;&gt;Vocals/Guitar&lt;/span&gt;" style="text;whiteSpace=wrap;html=1;align=center;" vertex="1" parent="1">
          <mxGeometry x="-155" y="380" width="130" height="40" as="geometry" />
        </mxCell>
        <mxCell id="33AM2IQ4MYA4YGEBKCbi-33" value="&lt;span style=&quot;color: rgb(0, 0, 0); font-family: Helvetica; font-size: 12px; font-style: normal; font-variant-ligatures: normal; font-variant-caps: normal; font-weight: 400; letter-spacing: normal; orphans: 2; text-indent: 0px; text-transform: none; widows: 2; word-spacing: 0px; -webkit-text-stroke-width: 0px; background-color: rgb(251, 251, 251); text-decoration-thickness: initial; text-decoration-style: initial; text-decoration-color: initial; float: none; display: inline !important;&quot;&gt;Paul McCartney&lt;/span&gt;" style="text;whiteSpace=wrap;html=1;align=center;" vertex="1" parent="1">
          <mxGeometry x="-339" y="190" width="100" height="40" as="geometry" />
        </mxCell>
        <mxCell id="33AM2IQ4MYA4YGEBKCbi-34" value="&lt;span style=&quot;color: rgb(0, 0, 0); font-family: Helvetica; font-size: 12px; font-style: normal; font-variant-ligatures: normal; font-variant-caps: normal; font-weight: 400; letter-spacing: normal; orphans: 2; text-indent: 0px; text-transform: none; widows: 2; word-spacing: 0px; -webkit-text-stroke-width: 0px; background-color: rgb(251, 251, 251); text-decoration-thickness: initial; text-decoration-style: initial; text-decoration-color: initial; float: none; display: inline !important;&quot;&gt;Vocals/Bass&lt;/span&gt;" style="text;whiteSpace=wrap;html=1;align=center;" vertex="1" parent="1">
          <mxGeometry x="-355" y="220" width="130" height="40" as="geometry" />
        </mxCell>
        <mxCell id="33AM2IQ4MYA4YGEBKCbi-35" value="&lt;span style=&quot;color: rgb(0, 0, 0); font-family: Helvetica; font-size: 12px; font-style: normal; font-variant-ligatures: normal; font-variant-caps: normal; font-weight: 400; letter-spacing: normal; orphans: 2; text-indent: 0px; text-transform: none; widows: 2; word-spacing: 0px; -webkit-text-stroke-width: 0px; background-color: rgb(251, 251, 251); text-decoration-thickness: initial; text-decoration-style: initial; text-decoration-color: initial; float: none; display: inline !important;&quot;&gt;George Harrison&lt;/span&gt;" style="text;whiteSpace=wrap;html=1;align=center;" vertex="1" parent="1">
          <mxGeometry x="-529" y="350" width="100" height="40" as="geometry" />
        </mxCell>
        <mxCell id="33AM2IQ4MYA4YGEBKCbi-36" value="&lt;span style=&quot;color: rgb(0, 0, 0); font-family: Helvetica; font-size: 12px; font-style: normal; font-variant-ligatures: normal; font-variant-caps: normal; font-weight: 400; letter-spacing: normal; orphans: 2; text-indent: 0px; text-transform: none; widows: 2; word-spacing: 0px; -webkit-text-stroke-width: 0px; background-color: rgb(251, 251, 251); text-decoration-thickness: initial; text-decoration-style: initial; text-decoration-color: initial; float: none; display: inline !important;&quot;&gt;Guitar&lt;/span&gt;" style="text;whiteSpace=wrap;html=1;align=center;" vertex="1" parent="1">
          <mxGeometry x="-545" y="380" width="130" height="40" as="geometry" />
        </mxCell>
        <mxCell id="33AM2IQ4MYA4YGEBKCbi-37" value="&lt;span style=&quot;color: rgb(0, 0, 0); font-family: Helvetica; font-size: 12px; font-style: normal; font-variant-ligatures: normal; font-variant-caps: normal; font-weight: 400; letter-spacing: normal; orphans: 2; text-indent: 0px; text-transform: none; widows: 2; word-spacing: 0px; -webkit-text-stroke-width: 0px; background-color: rgb(251, 251, 251); text-decoration-thickness: initial; text-decoration-style: initial; text-decoration-color: initial; float: none; display: inline !important;&quot;&gt;Ringo Starr&lt;/span&gt;" style="text;whiteSpace=wrap;html=1;align=center;" vertex="1" parent="1">
          <mxGeometry x="-339" y="505" width="100" height="40" as="geometry" />
        </mxCell>
        <mxCell id="33AM2IQ4MYA4YGEBKCbi-38" value="&lt;span style=&quot;color: rgb(0, 0, 0); font-family: Helvetica; font-size: 12px; font-style: normal; font-variant-ligatures: normal; font-variant-caps: normal; font-weight: 400; letter-spacing: normal; orphans: 2; text-indent: 0px; text-transform: none; widows: 2; word-spacing: 0px; -webkit-text-stroke-width: 0px; background-color: rgb(251, 251, 251); text-decoration-thickness: initial; text-decoration-style: initial; text-decoration-color: initial; float: none; display: inline !important;&quot;&gt;Drums&lt;/span&gt;" style="text;whiteSpace=wrap;html=1;align=center;" vertex="1" parent="1">
          <mxGeometry x="-355" y="535" width="130" height="40" as="geometry" />
        </mxCell>
        <mxCell id="33AM2IQ4MYA4YGEBKCbi-39" value="&lt;span style=&quot;color: rgb(0, 0, 0); font-family: Helvetica; font-size: 12px; font-style: normal; font-variant-ligatures: normal; font-variant-caps: normal; font-weight: 400; letter-spacing: normal; orphans: 2; text-indent: 0px; text-transform: none; widows: 2; word-spacing: 0px; -webkit-text-stroke-width: 0px; background-color: rgb(251, 251, 251); text-decoration-thickness: initial; text-decoration-style: initial; text-decoration-color: initial; float: none; display: inline !important;&quot;&gt;Robert Plant&lt;/span&gt;" style="text;whiteSpace=wrap;html=1;align=center;" vertex="1" parent="1">
          <mxGeometry x="336" y="240" width="100" height="40" as="geometry" />
        </mxCell>
        <mxCell id="33AM2IQ4MYA4YGEBKCbi-40" value="&lt;span style=&quot;color: rgb(0, 0, 0); font-family: Helvetica; font-size: 12px; font-style: normal; font-variant-ligatures: normal; font-variant-caps: normal; font-weight: 400; letter-spacing: normal; orphans: 2; text-indent: 0px; text-transform: none; widows: 2; word-spacing: 0px; -webkit-text-stroke-width: 0px; background-color: rgb(251, 251, 251); text-decoration-thickness: initial; text-decoration-style: initial; text-decoration-color: initial; float: none; display: inline !important;&quot;&gt;Vocals&lt;/span&gt;" style="text;whiteSpace=wrap;html=1;align=center;" vertex="1" parent="1">
          <mxGeometry x="320" y="270" width="130" height="40" as="geometry" />
        </mxCell>
        <mxCell id="33AM2IQ4MYA4YGEBKCbi-41" value="&lt;span style=&quot;color: rgb(0, 0, 0); font-family: Helvetica; font-size: 12px; font-style: normal; font-variant-ligatures: normal; font-variant-caps: normal; font-weight: 400; letter-spacing: normal; orphans: 2; text-indent: 0px; text-transform: none; widows: 2; word-spacing: 0px; -webkit-text-stroke-width: 0px; background-color: rgb(251, 251, 251); text-decoration-thickness: initial; text-decoration-style: initial; text-decoration-color: initial; float: none; display: inline !important;&quot;&gt;Jimmy Page&lt;/span&gt;" style="text;whiteSpace=wrap;html=1;align=center;" vertex="1" parent="1">
          <mxGeometry x="151" y="375" width="100" height="40" as="geometry" />
        </mxCell>
        <mxCell id="33AM2IQ4MYA4YGEBKCbi-42" value="&lt;span style=&quot;color: rgb(0, 0, 0); font-family: Helvetica; font-size: 12px; font-style: normal; font-variant-ligatures: normal; font-variant-caps: normal; font-weight: 400; letter-spacing: normal; orphans: 2; text-indent: 0px; text-transform: none; widows: 2; word-spacing: 0px; -webkit-text-stroke-width: 0px; background-color: rgb(251, 251, 251); text-decoration-thickness: initial; text-decoration-style: initial; text-decoration-color: initial; float: none; display: inline !important;&quot;&gt;Guitar&lt;/span&gt;" style="text;whiteSpace=wrap;html=1;align=center;" vertex="1" parent="1">
          <mxGeometry x="135" y="405" width="130" height="40" as="geometry" />
        </mxCell>
        <mxCell id="33AM2IQ4MYA4YGEBKCbi-43" value="&lt;span style=&quot;color: rgb(0, 0, 0); font-family: Helvetica; font-size: 12px; font-style: normal; font-variant-ligatures: normal; font-variant-caps: normal; font-weight: 400; letter-spacing: normal; orphans: 2; text-indent: 0px; text-transform: none; widows: 2; word-spacing: 0px; -webkit-text-stroke-width: 0px; background-color: rgb(251, 251, 251); text-decoration-thickness: initial; text-decoration-style: initial; text-decoration-color: initial; float: none; display: inline !important;&quot;&gt;John Paul Jones&lt;/span&gt;" style="text;whiteSpace=wrap;html=1;align=center;" vertex="1" parent="1">
          <mxGeometry x="521" y="385" width="100" height="40" as="geometry" />
        </mxCell>
        <mxCell id="33AM2IQ4MYA4YGEBKCbi-44" value="&lt;span style=&quot;color: rgb(0, 0, 0); font-family: Helvetica; font-size: 12px; font-style: normal; font-variant-ligatures: normal; font-variant-caps: normal; font-weight: 400; letter-spacing: normal; orphans: 2; text-indent: 0px; text-transform: none; widows: 2; word-spacing: 0px; -webkit-text-stroke-width: 0px; background-color: rgb(251, 251, 251); text-decoration-thickness: initial; text-decoration-style: initial; text-decoration-color: initial; float: none; display: inline !important;&quot;&gt;Bass&lt;/span&gt;" style="text;whiteSpace=wrap;html=1;align=center;" vertex="1" parent="1">
          <mxGeometry x="505" y="415" width="130" height="40" as="geometry" />
        </mxCell>
        <mxCell id="33AM2IQ4MYA4YGEBKCbi-45" value="&lt;span style=&quot;color: rgb(0, 0, 0); font-family: Helvetica; font-size: 12px; font-style: normal; font-variant-ligatures: normal; font-variant-caps: normal; font-weight: 400; letter-spacing: normal; orphans: 2; text-indent: 0px; text-transform: none; widows: 2; word-spacing: 0px; -webkit-text-stroke-width: 0px; background-color: rgb(251, 251, 251); text-decoration-thickness: initial; text-decoration-style: initial; text-decoration-color: initial; float: none; display: inline !important;&quot;&gt;John Bonham&lt;/span&gt;" style="text;whiteSpace=wrap;html=1;align=center;" vertex="1" parent="1">
          <mxGeometry x="336" y="540" width="100" height="40" as="geometry" />
        </mxCell>
        <mxCell id="33AM2IQ4MYA4YGEBKCbi-46" value="&lt;span style=&quot;color: rgb(0, 0, 0); font-family: Helvetica; font-size: 12px; font-style: normal; font-variant-ligatures: normal; font-variant-caps: normal; font-weight: 400; letter-spacing: normal; orphans: 2; text-indent: 0px; text-transform: none; widows: 2; word-spacing: 0px; -webkit-text-stroke-width: 0px; background-color: rgb(251, 251, 251); text-decoration-thickness: initial; text-decoration-style: initial; text-decoration-color: initial; float: none; display: inline !important;&quot;&gt;Drums&lt;/span&gt;" style="text;whiteSpace=wrap;html=1;align=center;" vertex="1" parent="1">
          <mxGeometry x="320" y="570" width="130" height="40" as="geometry" />
        </mxCell>
        <mxCell id="33AM2IQ4MYA4YGEBKCbi-47" value="&lt;span style=&quot;color: rgb(0, 0, 0); font-family: Helvetica; font-size: 12px; font-style: normal; font-variant-ligatures: normal; font-variant-caps: normal; font-weight: 400; letter-spacing: normal; orphans: 2; text-indent: 0px; text-transform: none; widows: 2; word-spacing: 0px; -webkit-text-stroke-width: 0px; background-color: rgb(251, 251, 251); text-decoration-thickness: initial; text-decoration-style: initial; text-decoration-color: initial; float: none; display: inline !important;&quot;&gt;David Gilmour&lt;/span&gt;" style="text;whiteSpace=wrap;html=1;align=center;" vertex="1" parent="1">
          <mxGeometry x="-156" y="860" width="100" height="40" as="geometry" />
        </mxCell>
        <mxCell id="33AM2IQ4MYA4YGEBKCbi-48" value="&lt;span style=&quot;color: rgb(0, 0, 0); font-family: Helvetica; font-size: 12px; font-style: normal; font-variant-ligatures: normal; font-variant-caps: normal; font-weight: 400; letter-spacing: normal; orphans: 2; text-indent: 0px; text-transform: none; widows: 2; word-spacing: 0px; -webkit-text-stroke-width: 0px; background-color: rgb(251, 251, 251); text-decoration-thickness: initial; text-decoration-style: initial; text-decoration-color: initial; float: none; display: inline !important;&quot;&gt;Guitar/Vocals&lt;/span&gt;" style="text;whiteSpace=wrap;html=1;align=center;" vertex="1" parent="1">
          <mxGeometry x="-172" y="890" width="130" height="40" as="geometry" />
        </mxCell>
        <mxCell id="33AM2IQ4MYA4YGEBKCbi-49" value="&lt;span style=&quot;color: rgb(0, 0, 0); font-family: Helvetica; font-size: 12px; font-style: normal; font-variant-ligatures: normal; font-variant-caps: normal; font-weight: 400; letter-spacing: normal; orphans: 2; text-indent: 0px; text-transform: none; widows: 2; word-spacing: 0px; -webkit-text-stroke-width: 0px; background-color: rgb(251, 251, 251); text-decoration-thickness: initial; text-decoration-style: initial; text-decoration-color: initial; float: none; display: inline !important;&quot;&gt;Roger Waters&lt;/span&gt;" style="text;whiteSpace=wrap;html=1;align=center;" vertex="1" parent="1">
          <mxGeometry x="44" y="860" width="100" height="40" as="geometry" />
        </mxCell>
        <mxCell id="33AM2IQ4MYA4YGEBKCbi-50" value="&lt;span style=&quot;color: rgb(0, 0, 0); font-family: Helvetica; font-size: 12px; font-style: normal; font-variant-ligatures: normal; font-variant-caps: normal; font-weight: 400; letter-spacing: normal; orphans: 2; text-indent: 0px; text-transform: none; widows: 2; word-spacing: 0px; -webkit-text-stroke-width: 0px; background-color: rgb(251, 251, 251); text-decoration-thickness: initial; text-decoration-style: initial; text-decoration-color: initial; float: none; display: inline !important;&quot;&gt;Bass/Vocals&lt;/span&gt;" style="text;whiteSpace=wrap;html=1;align=center;" vertex="1" parent="1">
          <mxGeometry x="28" y="890" width="130" height="40" as="geometry" />
        </mxCell>
        <mxCell id="33AM2IQ4MYA4YGEBKCbi-51" value="" style="endArrow=classic;html=1;rounded=0;entryX=1;entryY=0.5;entryDx=0;entryDy=0;exitX=0;exitY=0.5;exitDx=0;exitDy=0;" edge="1" parent="1" source="33AM2IQ4MYA4YGEBKCbi-1" target="K0Isr7wFFPX_4oUO0wUB-1">
          <mxGeometry width="50" height="50" relative="1" as="geometry">
            <mxPoint x="-280" y="340" as="sourcePoint" />
            <mxPoint x="-230" y="290" as="targetPoint" />
          </mxGeometry>
        </mxCell>
        <mxCell id="33AM2IQ4MYA4YGEBKCbi-52" value="" style="endArrow=classic;html=1;rounded=0;exitX=1;exitY=0.5;exitDx=0;exitDy=0;entryX=0;entryY=0.5;entryDx=0;entryDy=0;" edge="1" parent="1" source="33AM2IQ4MYA4YGEBKCbi-9" target="K0Isr7wFFPX_4oUO0wUB-1">
          <mxGeometry width="50" height="50" relative="1" as="geometry">
            <mxPoint x="-280" y="340" as="sourcePoint" />
            <mxPoint x="-360" y="380" as="targetPoint" />
          </mxGeometry>
        </mxCell>
        <mxCell id="33AM2IQ4MYA4YGEBKCbi-54" value="" style="endArrow=classic;html=1;rounded=0;entryX=0.5;entryY=0;entryDx=0;entryDy=0;exitX=0.5;exitY=1;exitDx=0;exitDy=0;" edge="1" parent="1" source="33AM2IQ4MYA4YGEBKCbi-10" target="K0Isr7wFFPX_4oUO0wUB-11">
          <mxGeometry width="50" height="50" relative="1" as="geometry">
            <mxPoint x="-280" y="340" as="sourcePoint" />
            <mxPoint x="-230" y="290" as="targetPoint" />
          </mxGeometry>
        </mxCell>
        <mxCell id="33AM2IQ4MYA4YGEBKCbi-55" value="" style="endArrow=classic;html=1;rounded=0;entryX=0.5;entryY=1;entryDx=0;entryDy=0;exitX=0.5;exitY=0;exitDx=0;exitDy=0;" edge="1" parent="1" source="33AM2IQ4MYA4YGEBKCbi-24" target="K0Isr7wFFPX_4oUO0wUB-1">
          <mxGeometry width="50" height="50" relative="1" as="geometry">
            <mxPoint x="-280" y="340" as="sourcePoint" />
            <mxPoint x="-230" y="290" as="targetPoint" />
          </mxGeometry>
        </mxCell>
        <mxCell id="33AM2IQ4MYA4YGEBKCbi-56" value="" style="endArrow=classic;html=1;rounded=0;exitX=1;exitY=0.5;exitDx=0;exitDy=0;entryX=0;entryY=0.5;entryDx=0;entryDy=0;" edge="1" parent="1" source="33AM2IQ4MYA4YGEBKCbi-2" target="K0Isr7wFFPX_4oUO0wUB-5">
          <mxGeometry width="50" height="50" relative="1" as="geometry">
            <mxPoint x="170" y="580" as="sourcePoint" />
            <mxPoint x="275" y="505" as="targetPoint" />
          </mxGeometry>
        </mxCell>
        <mxCell id="33AM2IQ4MYA4YGEBKCbi-57" value="" style="endArrow=classic;html=1;rounded=0;exitX=0.5;exitY=0;exitDx=0;exitDy=0;entryX=0.5;entryY=1;entryDx=0;entryDy=0;" edge="1" parent="1" source="33AM2IQ4MYA4YGEBKCbi-18" target="K0Isr7wFFPX_4oUO0wUB-5">
          <mxGeometry width="50" height="50" relative="1" as="geometry">
            <mxPoint x="460" y="390" as="sourcePoint" />
            <mxPoint x="510" y="340" as="targetPoint" />
          </mxGeometry>
        </mxCell>
        <mxCell id="33AM2IQ4MYA4YGEBKCbi-58" value="" style="endArrow=classic;html=1;rounded=0;entryX=1;entryY=0.5;entryDx=0;entryDy=0;exitX=0;exitY=0.5;exitDx=0;exitDy=0;" edge="1" parent="1" source="33AM2IQ4MYA4YGEBKCbi-3" target="K0Isr7wFFPX_4oUO0wUB-5">
          <mxGeometry width="50" height="50" relative="1" as="geometry">
            <mxPoint x="460" y="390" as="sourcePoint" />
            <mxPoint x="510" y="340" as="targetPoint" />
          </mxGeometry>
        </mxCell>
        <mxCell id="33AM2IQ4MYA4YGEBKCbi-59" value="" style="endArrow=classic;html=1;rounded=0;exitX=0.5;exitY=1;exitDx=0;exitDy=0;entryX=0.5;entryY=0;entryDx=0;entryDy=0;" edge="1" parent="1" source="33AM2IQ4MYA4YGEBKCbi-7" target="K0Isr7wFFPX_4oUO0wUB-29">
          <mxGeometry width="50" height="50" relative="1" as="geometry">
            <mxPoint x="460" y="390" as="sourcePoint" />
            <mxPoint x="510" y="340" as="targetPoint" />
          </mxGeometry>
        </mxCell>
        <mxCell id="33AM2IQ4MYA4YGEBKCbi-60" value="" style="endArrow=classic;html=1;rounded=0;exitX=0.5;exitY=0;exitDx=0;exitDy=0;entryX=1;entryY=1;entryDx=0;entryDy=0;" edge="1" parent="1" source="33AM2IQ4MYA4YGEBKCbi-20" target="K0Isr7wFFPX_4oUO0wUB-4">
          <mxGeometry width="50" height="50" relative="1" as="geometry">
            <mxPoint x="-370" y="580" as="sourcePoint" />
            <mxPoint x="-320" y="530" as="targetPoint" />
          </mxGeometry>
        </mxCell>
        <mxCell id="33AM2IQ4MYA4YGEBKCbi-61" value="" style="endArrow=classic;html=1;rounded=0;exitX=0.5;exitY=0;exitDx=0;exitDy=0;entryX=0.047;entryY=0.717;entryDx=0;entryDy=0;entryPerimeter=0;" edge="1" parent="1" source="33AM2IQ4MYA4YGEBKCbi-29" target="K0Isr7wFFPX_4oUO0wUB-4">
          <mxGeometry width="50" height="50" relative="1" as="geometry">
            <mxPoint x="-370" y="580" as="sourcePoint" />
            <mxPoint x="-320" y="530" as="targetPoint" />
          </mxGeometry>
        </mxCell>
      </root>
    </mxGraphModel>
  </diagram>
  <diagram id="GPbu49J5Vi9ngEILRub2" name="Ребро ReleasedAlbums">
    <mxGraphModel dx="1100" dy="809" grid="1" gridSize="10" guides="1" tooltips="1" connect="1" arrows="1" fold="1" page="1" pageScale="1" pageWidth="827" pageHeight="1169" math="0" shadow="0">
      <root>
        <mxCell id="0" />
        <mxCell id="1" parent="0" />
        <mxCell id="1QkxGiP34cwQ5XAsE5r6-1" value="" style="ellipse;whiteSpace=wrap;html=1;" parent="1" vertex="1">
          <mxGeometry y="80" width="120" height="120" as="geometry" />
        </mxCell>
        <mxCell id="1QkxGiP34cwQ5XAsE5r6-2" value="" style="ellipse;whiteSpace=wrap;html=1;" parent="1" vertex="1">
          <mxGeometry x="640" y="80" width="120" height="120" as="geometry" />
        </mxCell>
        <mxCell id="1QkxGiP34cwQ5XAsE5r6-3" value="" style="ellipse;whiteSpace=wrap;html=1;" parent="1" vertex="1">
          <mxGeometry x="480" y="80" width="120" height="120" as="geometry" />
        </mxCell>
        <mxCell id="1QkxGiP34cwQ5XAsE5r6-4" value="" style="ellipse;whiteSpace=wrap;html=1;" parent="1" vertex="1">
          <mxGeometry x="320" y="80" width="120" height="120" as="geometry" />
        </mxCell>
        <mxCell id="1QkxGiP34cwQ5XAsE5r6-5" value="" style="ellipse;whiteSpace=wrap;html=1;" parent="1" vertex="1">
          <mxGeometry x="160" y="80" width="120" height="120" as="geometry" />
        </mxCell>
        <mxCell id="1QkxGiP34cwQ5XAsE5r6-6" value="" style="ellipse;whiteSpace=wrap;html=1;" parent="1" vertex="1">
          <mxGeometry y="421" width="120" height="120" as="geometry" />
        </mxCell>
        <mxCell id="1QkxGiP34cwQ5XAsE5r6-7" value="" style="ellipse;whiteSpace=wrap;html=1;" parent="1" vertex="1">
          <mxGeometry x="480" y="421" width="120" height="120" as="geometry" />
        </mxCell>
        <mxCell id="1QkxGiP34cwQ5XAsE5r6-8" value="" style="ellipse;whiteSpace=wrap;html=1;" parent="1" vertex="1">
          <mxGeometry x="320" y="421" width="120" height="120" as="geometry" />
        </mxCell>
        <mxCell id="1QkxGiP34cwQ5XAsE5r6-9" value="" style="ellipse;whiteSpace=wrap;html=1;" parent="1" vertex="1">
          <mxGeometry x="160" y="421" width="120" height="120" as="geometry" />
        </mxCell>
        <mxCell id="1QkxGiP34cwQ5XAsE5r6-10" value="" style="ellipse;whiteSpace=wrap;html=1;" parent="1" vertex="1">
          <mxGeometry x="640" y="421" width="120" height="120" as="geometry" />
        </mxCell>
        <mxCell id="1QkxGiP34cwQ5XAsE5r6-11" value="" style="ellipse;whiteSpace=wrap;html=1;" parent="1" vertex="1">
          <mxGeometry x="40" y="80" width="40" height="40" as="geometry" />
        </mxCell>
        <mxCell id="1QkxGiP34cwQ5XAsE5r6-12" value="" style="ellipse;whiteSpace=wrap;html=1;" parent="1" vertex="1">
          <mxGeometry x="680" y="80" width="40" height="40" as="geometry" />
        </mxCell>
        <mxCell id="1QkxGiP34cwQ5XAsE5r6-13" value="" style="ellipse;whiteSpace=wrap;html=1;" parent="1" vertex="1">
          <mxGeometry x="520" y="80" width="40" height="40" as="geometry" />
        </mxCell>
        <mxCell id="1QkxGiP34cwQ5XAsE5r6-14" value="" style="ellipse;whiteSpace=wrap;html=1;" parent="1" vertex="1">
          <mxGeometry x="360" y="80" width="40" height="40" as="geometry" />
        </mxCell>
        <mxCell id="1QkxGiP34cwQ5XAsE5r6-15" value="" style="ellipse;whiteSpace=wrap;html=1;" parent="1" vertex="1">
          <mxGeometry x="200" y="80" width="40" height="40" as="geometry" />
        </mxCell>
        <mxCell id="1QkxGiP34cwQ5XAsE5r6-16" value="" style="ellipse;whiteSpace=wrap;html=1;" parent="1" vertex="1">
          <mxGeometry x="40" y="421" width="40" height="40" as="geometry" />
        </mxCell>
        <mxCell id="1QkxGiP34cwQ5XAsE5r6-17" value="" style="ellipse;whiteSpace=wrap;html=1;" parent="1" vertex="1">
          <mxGeometry x="680" y="421" width="40" height="40" as="geometry" />
        </mxCell>
        <mxCell id="1QkxGiP34cwQ5XAsE5r6-18" value="" style="ellipse;whiteSpace=wrap;html=1;" parent="1" vertex="1">
          <mxGeometry x="520" y="421" width="40" height="40" as="geometry" />
        </mxCell>
        <mxCell id="1QkxGiP34cwQ5XAsE5r6-19" value="" style="ellipse;whiteSpace=wrap;html=1;" parent="1" vertex="1">
          <mxGeometry x="360" y="421" width="40" height="40" as="geometry" />
        </mxCell>
        <mxCell id="1QkxGiP34cwQ5XAsE5r6-20" value="" style="ellipse;whiteSpace=wrap;html=1;" parent="1" vertex="1">
          <mxGeometry x="200" y="421" width="40" height="40" as="geometry" />
        </mxCell>
        <mxCell id="1QkxGiP34cwQ5XAsE5r6-21" value="&lt;font style=&quot;font-size: 18px;&quot;&gt;1&lt;/font&gt;" style="text;html=1;align=center;verticalAlign=middle;whiteSpace=wrap;rounded=0;" parent="1" vertex="1">
          <mxGeometry x="30" y="85" width="60" height="30" as="geometry" />
        </mxCell>
        <mxCell id="1QkxGiP34cwQ5XAsE5r6-22" value="&lt;font style=&quot;font-size: 18px;&quot;&gt;9&lt;/font&gt;" style="text;html=1;align=center;verticalAlign=middle;whiteSpace=wrap;rounded=0;" parent="1" vertex="1">
          <mxGeometry x="510" y="421" width="60" height="30" as="geometry" />
        </mxCell>
        <mxCell id="1QkxGiP34cwQ5XAsE5r6-23" value="&lt;font style=&quot;font-size: 18px;&quot;&gt;8&lt;/font&gt;" style="text;html=1;align=center;verticalAlign=middle;whiteSpace=wrap;rounded=0;" parent="1" vertex="1">
          <mxGeometry x="350" y="421" width="60" height="30" as="geometry" />
        </mxCell>
        <mxCell id="1QkxGiP34cwQ5XAsE5r6-24" value="&lt;font style=&quot;font-size: 18px;&quot;&gt;7&lt;/font&gt;" style="text;html=1;align=center;verticalAlign=middle;whiteSpace=wrap;rounded=0;" parent="1" vertex="1">
          <mxGeometry x="190" y="421" width="60" height="30" as="geometry" />
        </mxCell>
        <mxCell id="1QkxGiP34cwQ5XAsE5r6-25" value="&lt;font style=&quot;font-size: 18px;&quot;&gt;6&lt;/font&gt;" style="text;html=1;align=center;verticalAlign=middle;whiteSpace=wrap;rounded=0;" parent="1" vertex="1">
          <mxGeometry x="30" y="421" width="60" height="30" as="geometry" />
        </mxCell>
        <mxCell id="1QkxGiP34cwQ5XAsE5r6-26" value="&lt;font style=&quot;font-size: 18px;&quot;&gt;5&lt;/font&gt;" style="text;html=1;align=center;verticalAlign=middle;whiteSpace=wrap;rounded=0;" parent="1" vertex="1">
          <mxGeometry x="670" y="80" width="60" height="30" as="geometry" />
        </mxCell>
        <mxCell id="1QkxGiP34cwQ5XAsE5r6-27" value="&lt;font style=&quot;font-size: 18px;&quot;&gt;4&lt;/font&gt;" style="text;html=1;align=center;verticalAlign=middle;whiteSpace=wrap;rounded=0;" parent="1" vertex="1">
          <mxGeometry x="510" y="80" width="60" height="30" as="geometry" />
        </mxCell>
        <mxCell id="1QkxGiP34cwQ5XAsE5r6-28" value="&lt;font style=&quot;font-size: 18px;&quot;&gt;3&lt;/font&gt;" style="text;html=1;align=center;verticalAlign=middle;whiteSpace=wrap;rounded=0;" parent="1" vertex="1">
          <mxGeometry x="350" y="80" width="60" height="30" as="geometry" />
        </mxCell>
        <mxCell id="1QkxGiP34cwQ5XAsE5r6-29" value="&lt;font style=&quot;font-size: 18px;&quot;&gt;2&lt;/font&gt;" style="text;html=1;align=center;verticalAlign=middle;whiteSpace=wrap;rounded=0;" parent="1" vertex="1">
          <mxGeometry x="190" y="80" width="60" height="30" as="geometry" />
        </mxCell>
        <mxCell id="1QkxGiP34cwQ5XAsE5r6-30" value="&lt;font style=&quot;font-size: 18px;&quot;&gt;10&lt;/font&gt;" style="text;html=1;align=center;verticalAlign=middle;whiteSpace=wrap;rounded=0;" parent="1" vertex="1">
          <mxGeometry x="670" y="421" width="60" height="30" as="geometry" />
        </mxCell>
        <mxCell id="1QkxGiP34cwQ5XAsE5r6-31" value="&lt;span style=&quot;color: rgb(0, 0, 0); font-family: Helvetica; font-size: 12px; font-style: normal; font-variant-ligatures: normal; font-variant-caps: normal; font-weight: 400; letter-spacing: normal; orphans: 2; text-align: left; text-indent: 0px; text-transform: none; widows: 2; word-spacing: 0px; -webkit-text-stroke-width: 0px; background-color: rgb(251, 251, 251); text-decoration-thickness: initial; text-decoration-style: initial; text-decoration-color: initial; float: none; display: inline !important;&quot;&gt;The Beatles&lt;/span&gt;" style="text;whiteSpace=wrap;html=1;" parent="1" vertex="1">
          <mxGeometry x="25" y="125" width="70" height="30" as="geometry" />
        </mxCell>
        <mxCell id="1QkxGiP34cwQ5XAsE5r6-32" value="&lt;span style=&quot;color: rgb(0, 0, 0); font-family: Helvetica; font-size: 12px; font-style: normal; font-variant-ligatures: normal; font-variant-caps: normal; font-weight: 400; letter-spacing: normal; orphans: 2; text-align: left; text-indent: 0px; text-transform: none; widows: 2; word-spacing: 0px; -webkit-text-stroke-width: 0px; background-color: rgb(251, 251, 251); text-decoration-thickness: initial; text-decoration-style: initial; text-decoration-color: initial; float: none; display: inline !important;&quot;&gt;Rock&lt;/span&gt;" style="text;whiteSpace=wrap;html=1;" parent="1" vertex="1">
          <mxGeometry x="42.5" y="160" width="35" height="20" as="geometry" />
        </mxCell>
        <mxCell id="1QkxGiP34cwQ5XAsE5r6-33" value="&lt;span style=&quot;color: rgb(0, 0, 0); font-family: Helvetica; font-size: 12px; font-style: normal; font-variant-ligatures: normal; font-variant-caps: normal; font-weight: 400; letter-spacing: normal; orphans: 2; text-align: left; text-indent: 0px; text-transform: none; widows: 2; word-spacing: 0px; -webkit-text-stroke-width: 0px; background-color: rgb(251, 251, 251); text-decoration-thickness: initial; text-decoration-style: initial; text-decoration-color: initial; float: none; display: inline !important;&quot;&gt;Led Zeppelin&lt;/span&gt;" style="text;whiteSpace=wrap;html=1;" parent="1" vertex="1">
          <mxGeometry x="185" y="120" width="75" height="30" as="geometry" />
        </mxCell>
        <mxCell id="1QkxGiP34cwQ5XAsE5r6-34" value="&lt;span style=&quot;color: rgb(0, 0, 0); font-family: Helvetica; font-size: 12px; font-style: normal; font-variant-ligatures: normal; font-variant-caps: normal; font-weight: 400; letter-spacing: normal; orphans: 2; text-align: left; text-indent: 0px; text-transform: none; widows: 2; word-spacing: 0px; -webkit-text-stroke-width: 0px; background-color: rgb(251, 251, 251); text-decoration-thickness: initial; text-decoration-style: initial; text-decoration-color: initial; float: none; display: inline !important;&quot;&gt;Rock&lt;/span&gt;" style="text;whiteSpace=wrap;html=1;" parent="1" vertex="1">
          <mxGeometry x="202.5" y="155" width="35" height="20" as="geometry" />
        </mxCell>
        <mxCell id="1QkxGiP34cwQ5XAsE5r6-35" value="Radiohead" style="text;whiteSpace=wrap;html=1;" parent="1" vertex="1">
          <mxGeometry x="25" y="471" width="70" height="30" as="geometry" />
        </mxCell>
        <mxCell id="1QkxGiP34cwQ5XAsE5r6-36" value="&lt;span style=&quot;color: rgb(0, 0, 0); font-family: Helvetica; font-size: 12px; font-style: normal; font-variant-ligatures: normal; font-variant-caps: normal; font-weight: 400; letter-spacing: normal; orphans: 2; text-align: left; text-indent: 0px; text-transform: none; widows: 2; word-spacing: 0px; -webkit-text-stroke-width: 0px; background-color: rgb(251, 251, 251); text-decoration-thickness: initial; text-decoration-style: initial; text-decoration-color: initial; float: none; display: inline !important;&quot;&gt;Alternative Rock&lt;/span&gt;" style="text;whiteSpace=wrap;html=1;" parent="1" vertex="1">
          <mxGeometry x="10" y="491" width="110" height="20" as="geometry" />
        </mxCell>
        <mxCell id="1QkxGiP34cwQ5XAsE5r6-37" value="&lt;span style=&quot;color: rgb(0, 0, 0); font-family: Helvetica; font-size: 12px; font-style: normal; font-variant-ligatures: normal; font-variant-caps: normal; font-weight: 400; letter-spacing: normal; orphans: 2; text-align: left; text-indent: 0px; text-transform: none; widows: 2; word-spacing: 0px; -webkit-text-stroke-width: 0px; background-color: rgb(251, 251, 251); text-decoration-thickness: initial; text-decoration-style: initial; text-decoration-color: initial; float: none; display: inline !important;&quot;&gt;The Rolling Stones&lt;/span&gt;" style="text;whiteSpace=wrap;html=1;" parent="1" vertex="1">
          <mxGeometry x="185" y="461" width="70" height="30" as="geometry" />
        </mxCell>
        <mxCell id="1QkxGiP34cwQ5XAsE5r6-38" value="&lt;span style=&quot;color: rgb(0, 0, 0); font-family: Helvetica; font-size: 12px; font-style: normal; font-variant-ligatures: normal; font-variant-caps: normal; font-weight: 400; letter-spacing: normal; orphans: 2; text-align: left; text-indent: 0px; text-transform: none; widows: 2; word-spacing: 0px; -webkit-text-stroke-width: 0px; background-color: rgb(251, 251, 251); text-decoration-thickness: initial; text-decoration-style: initial; text-decoration-color: initial; float: none; display: inline !important;&quot;&gt;Rock&lt;/span&gt;" style="text;whiteSpace=wrap;html=1;" parent="1" vertex="1">
          <mxGeometry x="202.5" y="496" width="35" height="20" as="geometry" />
        </mxCell>
        <mxCell id="1QkxGiP34cwQ5XAsE5r6-39" value="&lt;span style=&quot;color: rgb(0, 0, 0); font-family: Helvetica; font-size: 12px; font-style: normal; font-variant-ligatures: normal; font-variant-caps: normal; font-weight: 400; letter-spacing: normal; orphans: 2; text-align: left; text-indent: 0px; text-transform: none; widows: 2; word-spacing: 0px; -webkit-text-stroke-width: 0px; background-color: rgb(251, 251, 251); text-decoration-thickness: initial; text-decoration-style: initial; text-decoration-color: initial; float: none; display: inline !important;&quot;&gt;Pink Floyd&lt;/span&gt;" style="text;whiteSpace=wrap;html=1;" parent="1" vertex="1">
          <mxGeometry x="345" y="120" width="70" height="30" as="geometry" />
        </mxCell>
        <mxCell id="1QkxGiP34cwQ5XAsE5r6-40" value="&lt;span style=&quot;color: rgb(0, 0, 0); font-family: Helvetica; font-size: 12px; font-style: normal; font-variant-ligatures: normal; font-variant-caps: normal; font-weight: 400; letter-spacing: normal; orphans: 2; text-align: left; text-indent: 0px; text-transform: none; widows: 2; word-spacing: 0px; -webkit-text-stroke-width: 0px; background-color: rgb(251, 251, 251); text-decoration-thickness: initial; text-decoration-style: initial; text-decoration-color: initial; float: none; display: inline !important;&quot;&gt;Progressive Rock&lt;/span&gt;" style="text;whiteSpace=wrap;html=1;" parent="1" vertex="1">
          <mxGeometry x="343" y="145" width="80" height="20" as="geometry" />
        </mxCell>
        <mxCell id="1QkxGiP34cwQ5XAsE5r6-41" value="&lt;span style=&quot;color: rgb(0, 0, 0); font-family: Helvetica; font-size: 12px; font-style: normal; font-variant-ligatures: normal; font-variant-caps: normal; font-weight: 400; letter-spacing: normal; orphans: 2; text-align: left; text-indent: 0px; text-transform: none; widows: 2; word-spacing: 0px; -webkit-text-stroke-width: 0px; background-color: rgb(251, 251, 251); text-decoration-thickness: initial; text-decoration-style: initial; text-decoration-color: initial; float: none; display: inline !important;&quot;&gt;Metallica&lt;/span&gt;" style="text;whiteSpace=wrap;html=1;" parent="1" vertex="1">
          <mxGeometry x="515" y="125" width="70" height="30" as="geometry" />
        </mxCell>
        <mxCell id="1QkxGiP34cwQ5XAsE5r6-42" value="&lt;span style=&quot;color: rgb(0, 0, 0); font-family: Helvetica; font-size: 12px; font-style: normal; font-variant-ligatures: normal; font-variant-caps: normal; font-weight: 400; letter-spacing: normal; orphans: 2; text-align: left; text-indent: 0px; text-transform: none; widows: 2; word-spacing: 0px; -webkit-text-stroke-width: 0px; background-color: rgb(251, 251, 251); text-decoration-thickness: initial; text-decoration-style: initial; text-decoration-color: initial; float: none; display: inline !important;&quot;&gt;Metal&lt;/span&gt;" style="text;whiteSpace=wrap;html=1;" parent="1" vertex="1">
          <mxGeometry x="522.5" y="160" width="35" height="20" as="geometry" />
        </mxCell>
        <mxCell id="1QkxGiP34cwQ5XAsE5r6-43" value="Nirvana" style="text;whiteSpace=wrap;html=1;" parent="1" vertex="1">
          <mxGeometry x="673" y="125" width="70" height="30" as="geometry" />
        </mxCell>
        <mxCell id="1QkxGiP34cwQ5XAsE5r6-44" value="&lt;span style=&quot;color: rgb(0, 0, 0); font-family: Helvetica; font-size: 12px; font-style: normal; font-variant-ligatures: normal; font-variant-caps: normal; font-weight: 400; letter-spacing: normal; orphans: 2; text-align: left; text-indent: 0px; text-transform: none; widows: 2; word-spacing: 0px; -webkit-text-stroke-width: 0px; background-color: rgb(251, 251, 251); text-decoration-thickness: initial; text-decoration-style: initial; text-decoration-color: initial; float: none; display: inline !important;&quot;&gt;Grunge&lt;/span&gt;" style="text;whiteSpace=wrap;html=1;" parent="1" vertex="1">
          <mxGeometry x="676.5" y="160" width="35" height="20" as="geometry" />
        </mxCell>
        <mxCell id="1QkxGiP34cwQ5XAsE5r6-45" value="&lt;span style=&quot;color: rgb(0, 0, 0); font-family: Helvetica; font-size: 12px; font-style: normal; font-variant-ligatures: normal; font-variant-caps: normal; font-weight: 400; letter-spacing: normal; orphans: 2; text-align: left; text-indent: 0px; text-transform: none; widows: 2; word-spacing: 0px; -webkit-text-stroke-width: 0px; background-color: rgb(251, 251, 251); text-decoration-thickness: initial; text-decoration-style: initial; text-decoration-color: initial; float: none; display: inline !important;&quot;&gt;Queen&lt;/span&gt;" style="text;whiteSpace=wrap;html=1;" parent="1" vertex="1">
          <mxGeometry x="359" y="471" width="70" height="30" as="geometry" />
        </mxCell>
        <mxCell id="1QkxGiP34cwQ5XAsE5r6-46" value="&lt;span style=&quot;color: rgb(0, 0, 0); font-family: Helvetica; font-size: 12px; font-style: normal; font-variant-ligatures: normal; font-variant-caps: normal; font-weight: 400; letter-spacing: normal; orphans: 2; text-align: left; text-indent: 0px; text-transform: none; widows: 2; word-spacing: 0px; -webkit-text-stroke-width: 0px; background-color: rgb(251, 251, 251); text-decoration-thickness: initial; text-decoration-style: initial; text-decoration-color: initial; float: none; display: inline !important;&quot;&gt;Rock&lt;/span&gt;" style="text;whiteSpace=wrap;html=1;" parent="1" vertex="1">
          <mxGeometry x="362.5" y="506" width="35" height="20" as="geometry" />
        </mxCell>
        <mxCell id="1QkxGiP34cwQ5XAsE5r6-47" value="&lt;span style=&quot;color: rgb(0, 0, 0); font-family: Helvetica; font-size: 12px; font-style: normal; font-variant-ligatures: normal; font-variant-caps: normal; font-weight: 400; letter-spacing: normal; orphans: 2; text-align: left; text-indent: 0px; text-transform: none; widows: 2; word-spacing: 0px; -webkit-text-stroke-width: 0px; background-color: rgb(251, 251, 251); text-decoration-thickness: initial; text-decoration-style: initial; text-decoration-color: initial; float: none; display: inline !important;&quot;&gt;AC/DC&lt;/span&gt;" style="text;whiteSpace=wrap;html=1;" parent="1" vertex="1">
          <mxGeometry x="519" y="468" width="70" height="30" as="geometry" />
        </mxCell>
        <mxCell id="1QkxGiP34cwQ5XAsE5r6-48" value="&lt;span style=&quot;color: rgb(0, 0, 0); font-family: Helvetica; font-size: 12px; font-style: normal; font-variant-ligatures: normal; font-variant-caps: normal; font-weight: 400; letter-spacing: normal; orphans: 2; text-align: left; text-indent: 0px; text-transform: none; widows: 2; word-spacing: 0px; -webkit-text-stroke-width: 0px; background-color: rgb(251, 251, 251); text-decoration-thickness: initial; text-decoration-style: initial; text-decoration-color: initial; float: none; display: inline !important;&quot;&gt;Hard Rock&lt;/span&gt;" style="text;whiteSpace=wrap;html=1;" parent="1" vertex="1">
          <mxGeometry x="525" y="495" width="39.5" height="20" as="geometry" />
        </mxCell>
        <mxCell id="1QkxGiP34cwQ5XAsE5r6-49" value="&lt;span style=&quot;color: rgb(0, 0, 0); font-family: Helvetica; font-size: 12px; font-style: normal; font-variant-ligatures: normal; font-variant-caps: normal; font-weight: 400; letter-spacing: normal; orphans: 2; text-align: left; text-indent: 0px; text-transform: none; widows: 2; word-spacing: 0px; -webkit-text-stroke-width: 0px; background-color: rgb(251, 251, 251); text-decoration-thickness: initial; text-decoration-style: initial; text-decoration-color: initial; float: none; display: inline !important;&quot;&gt;The Doors&lt;/span&gt;" style="text;whiteSpace=wrap;html=1;" parent="1" vertex="1">
          <mxGeometry x="671" y="465" width="70" height="30" as="geometry" />
        </mxCell>
        <mxCell id="1QkxGiP34cwQ5XAsE5r6-50" value="&lt;span style=&quot;color: rgb(0, 0, 0); font-family: Helvetica; font-size: 12px; font-style: normal; font-variant-ligatures: normal; font-variant-caps: normal; font-weight: 400; letter-spacing: normal; orphans: 2; text-align: left; text-indent: 0px; text-transform: none; widows: 2; word-spacing: 0px; -webkit-text-stroke-width: 0px; background-color: rgb(251, 251, 251); text-decoration-thickness: initial; text-decoration-style: initial; text-decoration-color: initial; float: none; display: inline !important;&quot;&gt;Psychedelic Rock&lt;/span&gt;" style="text;whiteSpace=wrap;html=1;" parent="1" vertex="1">
          <mxGeometry x="669.5" y="491" width="35" height="20" as="geometry" />
        </mxCell>
        <mxCell id="RnO7rv7z1TXHJ5wgrDOj-1" value="" style="rounded=0;whiteSpace=wrap;html=1;" parent="1" vertex="1">
          <mxGeometry x="3" y="250" width="120" height="80" as="geometry" />
        </mxCell>
        <mxCell id="RnO7rv7z1TXHJ5wgrDOj-2" value="" style="rounded=0;whiteSpace=wrap;html=1;" parent="1" vertex="1">
          <mxGeometry x="3" y="600" width="120" height="80" as="geometry" />
        </mxCell>
        <mxCell id="RnO7rv7z1TXHJ5wgrDOj-3" value="" style="rounded=0;whiteSpace=wrap;html=1;" parent="1" vertex="1">
          <mxGeometry x="163" y="600" width="120" height="80" as="geometry" />
        </mxCell>
        <mxCell id="RnO7rv7z1TXHJ5wgrDOj-4" value="" style="rounded=0;whiteSpace=wrap;html=1;" parent="1" vertex="1">
          <mxGeometry x="323" y="600" width="120" height="80" as="geometry" />
        </mxCell>
        <mxCell id="RnO7rv7z1TXHJ5wgrDOj-5" value="" style="rounded=0;whiteSpace=wrap;html=1;" parent="1" vertex="1">
          <mxGeometry x="483" y="600" width="120" height="80" as="geometry" />
        </mxCell>
        <mxCell id="RnO7rv7z1TXHJ5wgrDOj-6" value="" style="rounded=0;whiteSpace=wrap;html=1;" parent="1" vertex="1">
          <mxGeometry x="643" y="600" width="120" height="80" as="geometry" />
        </mxCell>
        <mxCell id="RnO7rv7z1TXHJ5wgrDOj-7" value="" style="rounded=0;whiteSpace=wrap;html=1;" parent="1" vertex="1">
          <mxGeometry x="643" y="250" width="120" height="80" as="geometry" />
        </mxCell>
        <mxCell id="RnO7rv7z1TXHJ5wgrDOj-8" value="" style="rounded=0;whiteSpace=wrap;html=1;" parent="1" vertex="1">
          <mxGeometry x="483" y="250" width="120" height="80" as="geometry" />
        </mxCell>
        <mxCell id="RnO7rv7z1TXHJ5wgrDOj-9" value="" style="rounded=0;whiteSpace=wrap;html=1;" parent="1" vertex="1">
          <mxGeometry x="323" y="250" width="120" height="80" as="geometry" />
        </mxCell>
        <mxCell id="RnO7rv7z1TXHJ5wgrDOj-10" value="" style="rounded=0;whiteSpace=wrap;html=1;" parent="1" vertex="1">
          <mxGeometry x="163" y="250" width="120" height="80" as="geometry" />
        </mxCell>
        <mxCell id="RnO7rv7z1TXHJ5wgrDOj-11" value="" style="rounded=0;whiteSpace=wrap;html=1;" parent="1" vertex="1">
          <mxGeometry x="43" y="250" width="40" height="30" as="geometry" />
        </mxCell>
        <mxCell id="RnO7rv7z1TXHJ5wgrDOj-12" value="" style="rounded=0;whiteSpace=wrap;html=1;" parent="1" vertex="1">
          <mxGeometry x="683" y="600" width="40" height="30" as="geometry" />
        </mxCell>
        <mxCell id="RnO7rv7z1TXHJ5wgrDOj-13" value="" style="rounded=0;whiteSpace=wrap;html=1;" parent="1" vertex="1">
          <mxGeometry x="523" y="600" width="40" height="30" as="geometry" />
        </mxCell>
        <mxCell id="RnO7rv7z1TXHJ5wgrDOj-14" value="" style="rounded=0;whiteSpace=wrap;html=1;" parent="1" vertex="1">
          <mxGeometry x="363" y="600" width="40" height="30" as="geometry" />
        </mxCell>
        <mxCell id="RnO7rv7z1TXHJ5wgrDOj-15" value="" style="rounded=0;whiteSpace=wrap;html=1;" parent="1" vertex="1">
          <mxGeometry x="203" y="600" width="40" height="30" as="geometry" />
        </mxCell>
        <mxCell id="RnO7rv7z1TXHJ5wgrDOj-16" value="" style="rounded=0;whiteSpace=wrap;html=1;" parent="1" vertex="1">
          <mxGeometry x="43" y="600" width="40" height="30" as="geometry" />
        </mxCell>
        <mxCell id="RnO7rv7z1TXHJ5wgrDOj-17" value="" style="rounded=0;whiteSpace=wrap;html=1;" parent="1" vertex="1">
          <mxGeometry x="683" y="250" width="40" height="30" as="geometry" />
        </mxCell>
        <mxCell id="RnO7rv7z1TXHJ5wgrDOj-18" value="" style="rounded=0;whiteSpace=wrap;html=1;" parent="1" vertex="1">
          <mxGeometry x="523" y="250" width="40" height="30" as="geometry" />
        </mxCell>
        <mxCell id="RnO7rv7z1TXHJ5wgrDOj-19" value="" style="rounded=0;whiteSpace=wrap;html=1;" parent="1" vertex="1">
          <mxGeometry x="363" y="250" width="40" height="30" as="geometry" />
        </mxCell>
        <mxCell id="RnO7rv7z1TXHJ5wgrDOj-20" value="" style="rounded=0;whiteSpace=wrap;html=1;" parent="1" vertex="1">
          <mxGeometry x="203" y="250" width="40" height="30" as="geometry" />
        </mxCell>
        <mxCell id="RnO7rv7z1TXHJ5wgrDOj-21" value="&lt;font style=&quot;font-size: 18px;&quot;&gt;1&lt;/font&gt;" style="text;html=1;align=center;verticalAlign=middle;whiteSpace=wrap;rounded=0;" parent="1" vertex="1">
          <mxGeometry x="33" y="250" width="60" height="30" as="geometry" />
        </mxCell>
        <mxCell id="RnO7rv7z1TXHJ5wgrDOj-22" value="&lt;font style=&quot;font-size: 18px;&quot;&gt;2&lt;/font&gt;" style="text;html=1;align=center;verticalAlign=middle;whiteSpace=wrap;rounded=0;" parent="1" vertex="1">
          <mxGeometry x="193" y="250" width="60" height="30" as="geometry" />
        </mxCell>
        <mxCell id="RnO7rv7z1TXHJ5wgrDOj-23" value="&lt;font style=&quot;font-size: 18px;&quot;&gt;3&lt;/font&gt;" style="text;html=1;align=center;verticalAlign=middle;whiteSpace=wrap;rounded=0;" parent="1" vertex="1">
          <mxGeometry x="353" y="250" width="60" height="30" as="geometry" />
        </mxCell>
        <mxCell id="RnO7rv7z1TXHJ5wgrDOj-24" value="&lt;span style=&quot;font-size: 18px;&quot;&gt;4&lt;/span&gt;" style="text;html=1;align=center;verticalAlign=middle;whiteSpace=wrap;rounded=0;" parent="1" vertex="1">
          <mxGeometry x="513" y="250" width="60" height="30" as="geometry" />
        </mxCell>
        <mxCell id="RnO7rv7z1TXHJ5wgrDOj-25" value="&lt;font style=&quot;font-size: 18px;&quot;&gt;5&lt;/font&gt;" style="text;html=1;align=center;verticalAlign=middle;whiteSpace=wrap;rounded=0;" parent="1" vertex="1">
          <mxGeometry x="673" y="250" width="60" height="30" as="geometry" />
        </mxCell>
        <mxCell id="RnO7rv7z1TXHJ5wgrDOj-26" value="&lt;font style=&quot;font-size: 18px;&quot;&gt;6&lt;/font&gt;" style="text;html=1;align=center;verticalAlign=middle;whiteSpace=wrap;rounded=0;" parent="1" vertex="1">
          <mxGeometry x="33" y="600" width="60" height="30" as="geometry" />
        </mxCell>
        <mxCell id="RnO7rv7z1TXHJ5wgrDOj-27" value="&lt;font style=&quot;font-size: 18px;&quot;&gt;7&lt;/font&gt;" style="text;html=1;align=center;verticalAlign=middle;whiteSpace=wrap;rounded=0;" parent="1" vertex="1">
          <mxGeometry x="193" y="600" width="60" height="30" as="geometry" />
        </mxCell>
        <mxCell id="RnO7rv7z1TXHJ5wgrDOj-28" value="&lt;font style=&quot;font-size: 18px;&quot;&gt;8&lt;/font&gt;" style="text;html=1;align=center;verticalAlign=middle;whiteSpace=wrap;rounded=0;" parent="1" vertex="1">
          <mxGeometry x="353" y="600" width="60" height="30" as="geometry" />
        </mxCell>
        <mxCell id="RnO7rv7z1TXHJ5wgrDOj-29" value="&lt;font style=&quot;font-size: 18px;&quot;&gt;9&lt;/font&gt;" style="text;html=1;align=center;verticalAlign=middle;whiteSpace=wrap;rounded=0;" parent="1" vertex="1">
          <mxGeometry x="513" y="600" width="60" height="30" as="geometry" />
        </mxCell>
        <mxCell id="RnO7rv7z1TXHJ5wgrDOj-30" value="&lt;font style=&quot;font-size: 18px;&quot;&gt;10&lt;/font&gt;" style="text;html=1;align=center;verticalAlign=middle;whiteSpace=wrap;rounded=0;" parent="1" vertex="1">
          <mxGeometry x="673" y="600" width="60" height="30" as="geometry" />
        </mxCell>
        <mxCell id="RnO7rv7z1TXHJ5wgrDOj-31" value="&lt;span style=&quot;color: rgb(0, 0, 0); font-family: Helvetica; font-size: 12px; font-style: normal; font-variant-ligatures: normal; font-variant-caps: normal; font-weight: 400; letter-spacing: normal; orphans: 2; text-align: left; text-indent: 0px; text-transform: none; widows: 2; word-spacing: 0px; -webkit-text-stroke-width: 0px; background-color: rgb(251, 251, 251); text-decoration-thickness: initial; text-decoration-style: initial; text-decoration-color: initial; float: none; display: inline !important;&quot;&gt;Abbey Road&lt;/span&gt;" style="text;whiteSpace=wrap;html=1;" parent="1" vertex="1">
          <mxGeometry x="28" y="280" width="70" height="30" as="geometry" />
        </mxCell>
        <mxCell id="RnO7rv7z1TXHJ5wgrDOj-32" value="&lt;span style=&quot;color: rgb(0, 0, 0); font-family: Helvetica; font-size: 12px; font-style: normal; font-variant-ligatures: normal; font-variant-caps: normal; font-weight: 400; letter-spacing: normal; orphans: 2; text-align: left; text-indent: 0px; text-transform: none; widows: 2; word-spacing: 0px; -webkit-text-stroke-width: 0px; background-color: rgb(251, 251, 251); text-decoration-thickness: initial; text-decoration-style: initial; text-decoration-color: initial; float: none; display: inline !important;&quot;&gt;1969&lt;/span&gt;" style="text;whiteSpace=wrap;html=1;" parent="1" vertex="1">
          <mxGeometry x="43" y="300" width="40" height="40" as="geometry" />
        </mxCell>
        <mxCell id="RnO7rv7z1TXHJ5wgrDOj-33" value="&lt;span style=&quot;color: rgb(0, 0, 0); font-family: Helvetica; font-size: 12px; font-style: normal; font-variant-ligatures: normal; font-variant-caps: normal; font-weight: 400; letter-spacing: normal; orphans: 2; text-align: left; text-indent: 0px; text-transform: none; widows: 2; word-spacing: 0px; -webkit-text-stroke-width: 0px; background-color: rgb(251, 251, 251); text-decoration-thickness: initial; text-decoration-style: initial; text-decoration-color: initial; float: none; display: inline !important;&quot;&gt;Led Zeppelin IV&lt;/span&gt;" style="text;whiteSpace=wrap;html=1;" parent="1" vertex="1">
          <mxGeometry x="179" y="280" width="103" height="30" as="geometry" />
        </mxCell>
        <mxCell id="RnO7rv7z1TXHJ5wgrDOj-34" value="&lt;span style=&quot;color: rgb(0, 0, 0); font-family: Helvetica; font-size: 12px; font-style: normal; font-variant-ligatures: normal; font-variant-caps: normal; font-weight: 400; letter-spacing: normal; orphans: 2; text-align: left; text-indent: 0px; text-transform: none; widows: 2; word-spacing: 0px; -webkit-text-stroke-width: 0px; background-color: rgb(251, 251, 251); text-decoration-thickness: initial; text-decoration-style: initial; text-decoration-color: initial; float: none; display: inline !important;&quot;&gt;1971&lt;/span&gt;" style="text;whiteSpace=wrap;html=1;" parent="1" vertex="1">
          <mxGeometry x="205" y="300" width="40" height="40" as="geometry" />
        </mxCell>
        <mxCell id="RnO7rv7z1TXHJ5wgrDOj-35" value="&lt;span style=&quot;color: rgb(0, 0, 0); font-family: Helvetica; font-size: 12px; font-style: normal; font-variant-ligatures: normal; font-variant-caps: normal; font-weight: 400; letter-spacing: normal; orphans: 2; text-align: left; text-indent: 0px; text-transform: none; widows: 2; word-spacing: 0px; -webkit-text-stroke-width: 0px; background-color: rgb(251, 251, 251); text-decoration-thickness: initial; text-decoration-style: initial; text-decoration-color: initial; float: none; display: inline !important;&quot;&gt;OK Computer&lt;/span&gt;" style="text;whiteSpace=wrap;html=1;" parent="1" vertex="1">
          <mxGeometry x="28" y="630" width="85" height="30" as="geometry" />
        </mxCell>
        <mxCell id="RnO7rv7z1TXHJ5wgrDOj-36" value="&lt;span style=&quot;color: rgb(0, 0, 0); font-family: Helvetica; font-size: 12px; font-style: normal; font-variant-ligatures: normal; font-variant-caps: normal; font-weight: 400; letter-spacing: normal; orphans: 2; text-align: left; text-indent: 0px; text-transform: none; widows: 2; word-spacing: 0px; -webkit-text-stroke-width: 0px; background-color: rgb(251, 251, 251); text-decoration-thickness: initial; text-decoration-style: initial; text-decoration-color: initial; float: none; display: inline !important;&quot;&gt;1997&lt;/span&gt;" style="text;whiteSpace=wrap;html=1;" parent="1" vertex="1">
          <mxGeometry x="43" y="650" width="40" height="40" as="geometry" />
        </mxCell>
        <mxCell id="RnO7rv7z1TXHJ5wgrDOj-37" value="&lt;span style=&quot;color: rgb(0, 0, 0); font-family: Helvetica; font-size: 12px; font-style: normal; font-variant-ligatures: normal; font-variant-caps: normal; font-weight: 400; letter-spacing: normal; orphans: 2; text-align: left; text-indent: 0px; text-transform: none; widows: 2; word-spacing: 0px; -webkit-text-stroke-width: 0px; background-color: rgb(251, 251, 251); text-decoration-thickness: initial; text-decoration-style: initial; text-decoration-color: initial; float: none; display: inline !important;&quot;&gt;Sticky Fingers&lt;/span&gt;" style="text;whiteSpace=wrap;html=1;" parent="1" vertex="1">
          <mxGeometry x="188" y="630" width="85" height="30" as="geometry" />
        </mxCell>
        <mxCell id="RnO7rv7z1TXHJ5wgrDOj-38" value="&lt;span style=&quot;color: rgb(0, 0, 0); font-family: Helvetica; font-size: 12px; font-style: normal; font-variant-ligatures: normal; font-variant-caps: normal; font-weight: 400; letter-spacing: normal; orphans: 2; text-align: left; text-indent: 0px; text-transform: none; widows: 2; word-spacing: 0px; -webkit-text-stroke-width: 0px; background-color: rgb(251, 251, 251); text-decoration-thickness: initial; text-decoration-style: initial; text-decoration-color: initial; float: none; display: inline !important;&quot;&gt;1971&lt;/span&gt;" style="text;whiteSpace=wrap;html=1;" parent="1" vertex="1">
          <mxGeometry x="203" y="650" width="40" height="40" as="geometry" />
        </mxCell>
        <mxCell id="RnO7rv7z1TXHJ5wgrDOj-39" value="&lt;span style=&quot;color: rgb(0, 0, 0); font-family: Helvetica; font-size: 12px; font-style: normal; font-variant-ligatures: normal; font-variant-caps: normal; font-weight: 400; letter-spacing: normal; orphans: 2; text-align: left; text-indent: 0px; text-transform: none; widows: 2; word-spacing: 0px; -webkit-text-stroke-width: 0px; background-color: rgb(251, 251, 251); text-decoration-thickness: initial; text-decoration-style: initial; text-decoration-color: initial; float: none; display: inline !important;&quot;&gt;The Dark Side of the Moon&lt;/span&gt;" style="text;whiteSpace=wrap;html=1;" parent="1" vertex="1">
          <mxGeometry x="324" y="279" width="130" height="30" as="geometry" />
        </mxCell>
        <mxCell id="RnO7rv7z1TXHJ5wgrDOj-40" value="&lt;span style=&quot;color: rgb(0, 0, 0); font-family: Helvetica; font-size: 12px; font-style: normal; font-variant-ligatures: normal; font-variant-caps: normal; font-weight: 400; letter-spacing: normal; orphans: 2; text-align: left; text-indent: 0px; text-transform: none; widows: 2; word-spacing: 0px; -webkit-text-stroke-width: 0px; background-color: rgb(251, 251, 251); text-decoration-thickness: initial; text-decoration-style: initial; text-decoration-color: initial; float: none; display: inline !important;&quot;&gt;1973&lt;/span&gt;" style="text;whiteSpace=wrap;html=1;" parent="1" vertex="1">
          <mxGeometry x="363" y="300" width="40" height="40" as="geometry" />
        </mxCell>
        <mxCell id="RnO7rv7z1TXHJ5wgrDOj-41" value="&lt;span style=&quot;color: rgb(0, 0, 0); font-family: Helvetica; font-size: 12px; font-style: normal; font-variant-ligatures: normal; font-variant-caps: normal; font-weight: 400; letter-spacing: normal; orphans: 2; text-align: left; text-indent: 0px; text-transform: none; widows: 2; word-spacing: 0px; -webkit-text-stroke-width: 0px; background-color: rgb(251, 251, 251); text-decoration-thickness: initial; text-decoration-style: initial; text-decoration-color: initial; float: none; display: inline !important;&quot;&gt;Master of Puppets&lt;/span&gt;" style="text;whiteSpace=wrap;html=1;" parent="1" vertex="1">
          <mxGeometry x="493" y="280" width="110" height="30" as="geometry" />
        </mxCell>
        <mxCell id="RnO7rv7z1TXHJ5wgrDOj-42" value="&lt;span style=&quot;color: rgb(0, 0, 0); font-family: Helvetica; font-size: 12px; font-style: normal; font-variant-ligatures: normal; font-variant-caps: normal; font-weight: 400; letter-spacing: normal; orphans: 2; text-align: left; text-indent: 0px; text-transform: none; widows: 2; word-spacing: 0px; -webkit-text-stroke-width: 0px; background-color: rgb(251, 251, 251); text-decoration-thickness: initial; text-decoration-style: initial; text-decoration-color: initial; float: none; display: inline !important;&quot;&gt;1986&lt;/span&gt;" style="text;whiteSpace=wrap;html=1;" parent="1" vertex="1">
          <mxGeometry x="523" y="300" width="40" height="40" as="geometry" />
        </mxCell>
        <mxCell id="RnO7rv7z1TXHJ5wgrDOj-43" value="&lt;span style=&quot;color: rgb(0, 0, 0); font-family: Helvetica; font-size: 12px; font-style: normal; font-variant-ligatures: normal; font-variant-caps: normal; font-weight: 400; letter-spacing: normal; orphans: 2; text-align: left; text-indent: 0px; text-transform: none; widows: 2; word-spacing: 0px; -webkit-text-stroke-width: 0px; background-color: rgb(251, 251, 251); text-decoration-thickness: initial; text-decoration-style: initial; text-decoration-color: initial; float: none; display: inline !important;&quot;&gt;A Night at the Opera&lt;/span&gt;" style="text;whiteSpace=wrap;html=1;" parent="1" vertex="1">
          <mxGeometry x="352" y="621" width="70" height="30" as="geometry" />
        </mxCell>
        <mxCell id="RnO7rv7z1TXHJ5wgrDOj-44" value="&lt;span style=&quot;color: rgb(0, 0, 0); font-family: Helvetica; font-size: 12px; font-style: normal; font-variant-ligatures: normal; font-variant-caps: normal; font-weight: 400; letter-spacing: normal; orphans: 2; text-align: left; text-indent: 0px; text-transform: none; widows: 2; word-spacing: 0px; -webkit-text-stroke-width: 0px; background-color: rgb(251, 251, 251); text-decoration-thickness: initial; text-decoration-style: initial; text-decoration-color: initial; float: none; display: inline !important;&quot;&gt;1975&lt;/span&gt;" style="text;whiteSpace=wrap;html=1;" parent="1" vertex="1">
          <mxGeometry x="363" y="650" width="40" height="40" as="geometry" />
        </mxCell>
        <mxCell id="RnO7rv7z1TXHJ5wgrDOj-45" value="&lt;span style=&quot;color: rgb(0, 0, 0); font-family: Helvetica; font-size: 12px; font-style: normal; font-variant-ligatures: normal; font-variant-caps: normal; font-weight: 400; letter-spacing: normal; orphans: 2; text-align: left; text-indent: 0px; text-transform: none; widows: 2; word-spacing: 0px; -webkit-text-stroke-width: 0px; background-color: rgb(251, 251, 251); text-decoration-thickness: initial; text-decoration-style: initial; text-decoration-color: initial; float: none; display: inline !important;&quot;&gt;Nevermind&lt;/span&gt;" style="text;whiteSpace=wrap;html=1;" parent="1" vertex="1">
          <mxGeometry x="668" y="284" width="70" height="30" as="geometry" />
        </mxCell>
        <mxCell id="RnO7rv7z1TXHJ5wgrDOj-46" value="&lt;span style=&quot;color: rgb(0, 0, 0); font-family: Helvetica; font-size: 12px; font-style: normal; font-variant-ligatures: normal; font-variant-caps: normal; font-weight: 400; letter-spacing: normal; orphans: 2; text-align: left; text-indent: 0px; text-transform: none; widows: 2; word-spacing: 0px; -webkit-text-stroke-width: 0px; background-color: rgb(251, 251, 251); text-decoration-thickness: initial; text-decoration-style: initial; text-decoration-color: initial; float: none; display: inline !important;&quot;&gt;1991&lt;/span&gt;" style="text;whiteSpace=wrap;html=1;" parent="1" vertex="1">
          <mxGeometry x="683" y="304" width="40" height="40" as="geometry" />
        </mxCell>
        <mxCell id="RnO7rv7z1TXHJ5wgrDOj-47" value="&lt;span style=&quot;color: rgb(0, 0, 0); font-family: Helvetica; font-size: 12px; font-style: normal; font-variant-ligatures: normal; font-variant-caps: normal; font-weight: 400; letter-spacing: normal; orphans: 2; text-align: left; text-indent: 0px; text-transform: none; widows: 2; word-spacing: 0px; -webkit-text-stroke-width: 0px; background-color: rgb(251, 251, 251); text-decoration-thickness: initial; text-decoration-style: initial; text-decoration-color: initial; float: none; display: inline !important;&quot;&gt;Back in Black&lt;/span&gt;" style="text;whiteSpace=wrap;html=1;" parent="1" vertex="1">
          <mxGeometry x="508" y="630" width="75" height="30" as="geometry" />
        </mxCell>
        <mxCell id="RnO7rv7z1TXHJ5wgrDOj-48" value="&lt;span style=&quot;color: rgb(0, 0, 0); font-family: Helvetica; font-size: 12px; font-style: normal; font-variant-ligatures: normal; font-variant-caps: normal; font-weight: 400; letter-spacing: normal; orphans: 2; text-align: left; text-indent: 0px; text-transform: none; widows: 2; word-spacing: 0px; -webkit-text-stroke-width: 0px; background-color: rgb(251, 251, 251); text-decoration-thickness: initial; text-decoration-style: initial; text-decoration-color: initial; float: none; display: inline !important;&quot;&gt;1980&lt;/span&gt;" style="text;whiteSpace=wrap;html=1;" parent="1" vertex="1">
          <mxGeometry x="523" y="650" width="40" height="40" as="geometry" />
        </mxCell>
        <mxCell id="RnO7rv7z1TXHJ5wgrDOj-49" value="&lt;span style=&quot;color: rgb(0, 0, 0); font-family: Helvetica; font-size: 12px; font-style: normal; font-variant-ligatures: normal; font-variant-caps: normal; font-weight: 400; letter-spacing: normal; orphans: 2; text-align: left; text-indent: 0px; text-transform: none; widows: 2; word-spacing: 0px; -webkit-text-stroke-width: 0px; background-color: rgb(251, 251, 251); text-decoration-thickness: initial; text-decoration-style: initial; text-decoration-color: initial; float: none; display: inline !important;&quot;&gt;The Doors&lt;/span&gt;" style="text;whiteSpace=wrap;html=1;" parent="1" vertex="1">
          <mxGeometry x="668" y="630" width="70" height="30" as="geometry" />
        </mxCell>
        <mxCell id="RnO7rv7z1TXHJ5wgrDOj-50" value="&lt;span style=&quot;color: rgb(0, 0, 0); font-family: Helvetica; font-size: 12px; font-style: normal; font-variant-ligatures: normal; font-variant-caps: normal; font-weight: 400; letter-spacing: normal; orphans: 2; text-align: left; text-indent: 0px; text-transform: none; widows: 2; word-spacing: 0px; -webkit-text-stroke-width: 0px; background-color: rgb(251, 251, 251); text-decoration-thickness: initial; text-decoration-style: initial; text-decoration-color: initial; float: none; display: inline !important;&quot;&gt;1967&lt;/span&gt;" style="text;whiteSpace=wrap;html=1;" parent="1" vertex="1">
          <mxGeometry x="683" y="650" width="40" height="40" as="geometry" />
        </mxCell>
        <mxCell id="RnO7rv7z1TXHJ5wgrDOj-61" value="" style="endArrow=classic;html=1;rounded=0;exitX=0.5;exitY=1;exitDx=0;exitDy=0;entryX=0.5;entryY=0;entryDx=0;entryDy=0;" parent="1" source="1QkxGiP34cwQ5XAsE5r6-1" target="RnO7rv7z1TXHJ5wgrDOj-21" edge="1">
          <mxGeometry width="50" height="50" relative="1" as="geometry">
            <mxPoint x="390" y="390" as="sourcePoint" />
            <mxPoint x="440" y="340" as="targetPoint" />
          </mxGeometry>
        </mxCell>
        <mxCell id="RnO7rv7z1TXHJ5wgrDOj-62" value="" style="endArrow=classic;html=1;rounded=0;exitX=0.5;exitY=1;exitDx=0;exitDy=0;entryX=0.5;entryY=0;entryDx=0;entryDy=0;" parent="1" edge="1">
          <mxGeometry width="50" height="50" relative="1" as="geometry">
            <mxPoint x="220" y="199" as="sourcePoint" />
            <mxPoint x="223" y="249" as="targetPoint" />
          </mxGeometry>
        </mxCell>
        <mxCell id="RnO7rv7z1TXHJ5wgrDOj-63" value="" style="endArrow=classic;html=1;rounded=0;exitX=0.5;exitY=1;exitDx=0;exitDy=0;entryX=0.5;entryY=0;entryDx=0;entryDy=0;" parent="1" edge="1">
          <mxGeometry width="50" height="50" relative="1" as="geometry">
            <mxPoint x="380" y="200" as="sourcePoint" />
            <mxPoint x="383" y="250" as="targetPoint" />
          </mxGeometry>
        </mxCell>
        <mxCell id="RnO7rv7z1TXHJ5wgrDOj-64" value="" style="endArrow=classic;html=1;rounded=0;exitX=0.5;exitY=1;exitDx=0;exitDy=0;entryX=0.5;entryY=0;entryDx=0;entryDy=0;" parent="1" edge="1">
          <mxGeometry width="50" height="50" relative="1" as="geometry">
            <mxPoint x="540" y="200" as="sourcePoint" />
            <mxPoint x="543" y="250" as="targetPoint" />
          </mxGeometry>
        </mxCell>
        <mxCell id="RnO7rv7z1TXHJ5wgrDOj-65" value="" style="endArrow=classic;html=1;rounded=0;exitX=0.5;exitY=1;exitDx=0;exitDy=0;entryX=0.5;entryY=0;entryDx=0;entryDy=0;" parent="1" edge="1">
          <mxGeometry width="50" height="50" relative="1" as="geometry">
            <mxPoint x="700" y="197" as="sourcePoint" />
            <mxPoint x="703" y="247" as="targetPoint" />
          </mxGeometry>
        </mxCell>
        <mxCell id="RnO7rv7z1TXHJ5wgrDOj-66" value="" style="endArrow=classic;html=1;rounded=0;exitX=0.5;exitY=1;exitDx=0;exitDy=0;entryX=0.5;entryY=0;entryDx=0;entryDy=0;" parent="1" target="RnO7rv7z1TXHJ5wgrDOj-26" edge="1">
          <mxGeometry width="50" height="50" relative="1" as="geometry">
            <mxPoint x="60" y="540" as="sourcePoint" />
            <mxPoint x="63" y="590" as="targetPoint" />
          </mxGeometry>
        </mxCell>
        <mxCell id="RnO7rv7z1TXHJ5wgrDOj-67" value="" style="endArrow=classic;html=1;rounded=0;exitX=0.5;exitY=1;exitDx=0;exitDy=0;entryX=0.5;entryY=0;entryDx=0;entryDy=0;" parent="1" edge="1">
          <mxGeometry width="50" height="50" relative="1" as="geometry">
            <mxPoint x="220" y="540" as="sourcePoint" />
            <mxPoint x="223" y="600" as="targetPoint" />
          </mxGeometry>
        </mxCell>
        <mxCell id="RnO7rv7z1TXHJ5wgrDOj-68" value="" style="endArrow=classic;html=1;rounded=0;exitX=0.5;exitY=1;exitDx=0;exitDy=0;entryX=0.5;entryY=0;entryDx=0;entryDy=0;" parent="1" edge="1">
          <mxGeometry width="50" height="50" relative="1" as="geometry">
            <mxPoint x="380" y="540" as="sourcePoint" />
            <mxPoint x="383" y="600" as="targetPoint" />
          </mxGeometry>
        </mxCell>
        <mxCell id="RnO7rv7z1TXHJ5wgrDOj-69" value="" style="endArrow=classic;html=1;rounded=0;exitX=0.5;exitY=1;exitDx=0;exitDy=0;entryX=0.5;entryY=0;entryDx=0;entryDy=0;" parent="1" edge="1">
          <mxGeometry width="50" height="50" relative="1" as="geometry">
            <mxPoint x="540" y="540" as="sourcePoint" />
            <mxPoint x="543" y="600" as="targetPoint" />
          </mxGeometry>
        </mxCell>
        <mxCell id="RnO7rv7z1TXHJ5wgrDOj-70" value="" style="endArrow=classic;html=1;rounded=0;exitX=0.5;exitY=1;exitDx=0;exitDy=0;entryX=0.5;entryY=0;entryDx=0;entryDy=0;" parent="1" edge="1">
          <mxGeometry width="50" height="50" relative="1" as="geometry">
            <mxPoint x="700" y="540" as="sourcePoint" />
            <mxPoint x="703" y="600" as="targetPoint" />
          </mxGeometry>
        </mxCell>
      </root>
    </mxGraphModel>
  </diagram>
  <diagram id="cAs4zVHjxGdLq7z6FlZW" name="Ребро Influenced">
    <mxGraphModel dx="1100" dy="809" grid="1" gridSize="10" guides="1" tooltips="1" connect="1" arrows="1" fold="1" page="1" pageScale="1" pageWidth="827" pageHeight="1169" math="0" shadow="0">
      <root>
        <mxCell id="0" />
        <mxCell id="1" parent="0" />
        <mxCell id="3QJTF2zPG5w9d_VsXsdD-1" value="" style="ellipse;whiteSpace=wrap;html=1;" parent="1" vertex="1">
          <mxGeometry x="181" y="260" width="120" height="120" as="geometry" />
        </mxCell>
        <mxCell id="3QJTF2zPG5w9d_VsXsdD-2" value="" style="ellipse;whiteSpace=wrap;html=1;" parent="1" vertex="1">
          <mxGeometry x="660" y="175" width="120" height="120" as="geometry" />
        </mxCell>
        <mxCell id="3QJTF2zPG5w9d_VsXsdD-3" value="" style="ellipse;whiteSpace=wrap;html=1;" parent="1" vertex="1">
          <mxGeometry x="181" y="90" width="120" height="120" as="geometry" />
        </mxCell>
        <mxCell id="3QJTF2zPG5w9d_VsXsdD-4" value="" style="ellipse;whiteSpace=wrap;html=1;" parent="1" vertex="1">
          <mxGeometry x="501" y="260" width="120" height="120" as="geometry" />
        </mxCell>
        <mxCell id="3QJTF2zPG5w9d_VsXsdD-5" value="" style="ellipse;whiteSpace=wrap;html=1;" parent="1" vertex="1">
          <mxGeometry x="341" y="260" width="120" height="120" as="geometry" />
        </mxCell>
        <mxCell id="3QJTF2zPG5w9d_VsXsdD-6" value="" style="ellipse;whiteSpace=wrap;html=1;" parent="1" vertex="1">
          <mxGeometry x="504" y="60" width="120" height="120" as="geometry" />
        </mxCell>
        <mxCell id="3QJTF2zPG5w9d_VsXsdD-11" value="" style="ellipse;whiteSpace=wrap;html=1;" parent="1" vertex="1">
          <mxGeometry x="221" y="260" width="40" height="40" as="geometry" />
        </mxCell>
        <mxCell id="3QJTF2zPG5w9d_VsXsdD-12" value="" style="ellipse;whiteSpace=wrap;html=1;" parent="1" vertex="1">
          <mxGeometry x="700" y="175" width="40" height="40" as="geometry" />
        </mxCell>
        <mxCell id="3QJTF2zPG5w9d_VsXsdD-13" value="" style="ellipse;whiteSpace=wrap;html=1;" parent="1" vertex="1">
          <mxGeometry x="221" y="90" width="40" height="40" as="geometry" />
        </mxCell>
        <mxCell id="3QJTF2zPG5w9d_VsXsdD-14" value="" style="ellipse;whiteSpace=wrap;html=1;" parent="1" vertex="1">
          <mxGeometry x="541" y="260" width="40" height="40" as="geometry" />
        </mxCell>
        <mxCell id="3QJTF2zPG5w9d_VsXsdD-15" value="" style="ellipse;whiteSpace=wrap;html=1;" parent="1" vertex="1">
          <mxGeometry x="381" y="260" width="40" height="40" as="geometry" />
        </mxCell>
        <mxCell id="3QJTF2zPG5w9d_VsXsdD-16" value="" style="ellipse;whiteSpace=wrap;html=1;" parent="1" vertex="1">
          <mxGeometry x="544" y="60" width="40" height="40" as="geometry" />
        </mxCell>
        <mxCell id="3QJTF2zPG5w9d_VsXsdD-21" value="&lt;font style=&quot;font-size: 18px;&quot;&gt;1&lt;/font&gt;" style="text;html=1;align=center;verticalAlign=middle;whiteSpace=wrap;rounded=0;" parent="1" vertex="1">
          <mxGeometry x="211" y="265" width="60" height="30" as="geometry" />
        </mxCell>
        <mxCell id="3QJTF2zPG5w9d_VsXsdD-25" value="&lt;font style=&quot;font-size: 18px;&quot;&gt;6&lt;/font&gt;" style="text;html=1;align=center;verticalAlign=middle;whiteSpace=wrap;rounded=0;" parent="1" vertex="1">
          <mxGeometry x="534" y="60" width="60" height="30" as="geometry" />
        </mxCell>
        <mxCell id="3QJTF2zPG5w9d_VsXsdD-26" value="&lt;font style=&quot;font-size: 18px;&quot;&gt;5&lt;/font&gt;" style="text;html=1;align=center;verticalAlign=middle;whiteSpace=wrap;rounded=0;" parent="1" vertex="1">
          <mxGeometry x="690" y="175" width="60" height="30" as="geometry" />
        </mxCell>
        <mxCell id="3QJTF2zPG5w9d_VsXsdD-27" value="&lt;font style=&quot;font-size: 18px;&quot;&gt;4&lt;/font&gt;" style="text;html=1;align=center;verticalAlign=middle;whiteSpace=wrap;rounded=0;" parent="1" vertex="1">
          <mxGeometry x="211" y="90" width="60" height="30" as="geometry" />
        </mxCell>
        <mxCell id="3QJTF2zPG5w9d_VsXsdD-28" value="&lt;font style=&quot;font-size: 18px;&quot;&gt;3&lt;/font&gt;" style="text;html=1;align=center;verticalAlign=middle;whiteSpace=wrap;rounded=0;" parent="1" vertex="1">
          <mxGeometry x="531" y="260" width="60" height="30" as="geometry" />
        </mxCell>
        <mxCell id="3QJTF2zPG5w9d_VsXsdD-29" value="&lt;font style=&quot;font-size: 18px;&quot;&gt;2&lt;/font&gt;" style="text;html=1;align=center;verticalAlign=middle;whiteSpace=wrap;rounded=0;" parent="1" vertex="1">
          <mxGeometry x="371" y="260" width="60" height="30" as="geometry" />
        </mxCell>
        <mxCell id="3QJTF2zPG5w9d_VsXsdD-31" value="&lt;span style=&quot;color: rgb(0, 0, 0); font-family: Helvetica; font-size: 12px; font-style: normal; font-variant-ligatures: normal; font-variant-caps: normal; font-weight: 400; letter-spacing: normal; orphans: 2; text-align: left; text-indent: 0px; text-transform: none; widows: 2; word-spacing: 0px; -webkit-text-stroke-width: 0px; background-color: rgb(251, 251, 251); text-decoration-thickness: initial; text-decoration-style: initial; text-decoration-color: initial; float: none; display: inline !important;&quot;&gt;The Beatles&lt;/span&gt;" style="text;whiteSpace=wrap;html=1;" parent="1" vertex="1">
          <mxGeometry x="206" y="305" width="70" height="30" as="geometry" />
        </mxCell>
        <mxCell id="3QJTF2zPG5w9d_VsXsdD-32" value="&lt;span style=&quot;color: rgb(0, 0, 0); font-family: Helvetica; font-size: 12px; font-style: normal; font-variant-ligatures: normal; font-variant-caps: normal; font-weight: 400; letter-spacing: normal; orphans: 2; text-align: left; text-indent: 0px; text-transform: none; widows: 2; word-spacing: 0px; -webkit-text-stroke-width: 0px; background-color: rgb(251, 251, 251); text-decoration-thickness: initial; text-decoration-style: initial; text-decoration-color: initial; float: none; display: inline !important;&quot;&gt;Rock&lt;/span&gt;" style="text;whiteSpace=wrap;html=1;" parent="1" vertex="1">
          <mxGeometry x="223.5" y="340" width="35" height="20" as="geometry" />
        </mxCell>
        <mxCell id="3QJTF2zPG5w9d_VsXsdD-33" value="&lt;span style=&quot;color: rgb(0, 0, 0); font-family: Helvetica; font-size: 12px; font-style: normal; font-variant-ligatures: normal; font-variant-caps: normal; font-weight: 400; letter-spacing: normal; orphans: 2; text-align: left; text-indent: 0px; text-transform: none; widows: 2; word-spacing: 0px; -webkit-text-stroke-width: 0px; background-color: rgb(251, 251, 251); text-decoration-thickness: initial; text-decoration-style: initial; text-decoration-color: initial; float: none; display: inline !important;&quot;&gt;Led Zeppelin&lt;/span&gt;" style="text;whiteSpace=wrap;html=1;" parent="1" vertex="1">
          <mxGeometry x="366" y="300" width="75" height="30" as="geometry" />
        </mxCell>
        <mxCell id="3QJTF2zPG5w9d_VsXsdD-34" value="&lt;span style=&quot;color: rgb(0, 0, 0); font-family: Helvetica; font-size: 12px; font-style: normal; font-variant-ligatures: normal; font-variant-caps: normal; font-weight: 400; letter-spacing: normal; orphans: 2; text-align: left; text-indent: 0px; text-transform: none; widows: 2; word-spacing: 0px; -webkit-text-stroke-width: 0px; background-color: rgb(251, 251, 251); text-decoration-thickness: initial; text-decoration-style: initial; text-decoration-color: initial; float: none; display: inline !important;&quot;&gt;Rock&lt;/span&gt;" style="text;whiteSpace=wrap;html=1;" parent="1" vertex="1">
          <mxGeometry x="383.5" y="335" width="35" height="20" as="geometry" />
        </mxCell>
        <mxCell id="3QJTF2zPG5w9d_VsXsdD-35" value="Radiohead" style="text;whiteSpace=wrap;html=1;" parent="1" vertex="1">
          <mxGeometry x="529" y="110" width="70" height="30" as="geometry" />
        </mxCell>
        <mxCell id="3QJTF2zPG5w9d_VsXsdD-36" value="&lt;span style=&quot;color: rgb(0, 0, 0); font-family: Helvetica; font-size: 12px; font-style: normal; font-variant-ligatures: normal; font-variant-caps: normal; font-weight: 400; letter-spacing: normal; orphans: 2; text-align: left; text-indent: 0px; text-transform: none; widows: 2; word-spacing: 0px; -webkit-text-stroke-width: 0px; background-color: rgb(251, 251, 251); text-decoration-thickness: initial; text-decoration-style: initial; text-decoration-color: initial; float: none; display: inline !important;&quot;&gt;Alternative Rock&lt;/span&gt;" style="text;whiteSpace=wrap;html=1;" parent="1" vertex="1">
          <mxGeometry x="514" y="130" width="110" height="20" as="geometry" />
        </mxCell>
        <mxCell id="3QJTF2zPG5w9d_VsXsdD-39" value="&lt;span style=&quot;color: rgb(0, 0, 0); font-family: Helvetica; font-size: 12px; font-style: normal; font-variant-ligatures: normal; font-variant-caps: normal; font-weight: 400; letter-spacing: normal; orphans: 2; text-align: left; text-indent: 0px; text-transform: none; widows: 2; word-spacing: 0px; -webkit-text-stroke-width: 0px; background-color: rgb(251, 251, 251); text-decoration-thickness: initial; text-decoration-style: initial; text-decoration-color: initial; float: none; display: inline !important;&quot;&gt;Pink Floyd&lt;/span&gt;" style="text;whiteSpace=wrap;html=1;" parent="1" vertex="1">
          <mxGeometry x="526" y="300" width="70" height="30" as="geometry" />
        </mxCell>
        <mxCell id="3QJTF2zPG5w9d_VsXsdD-40" value="&lt;span style=&quot;color: rgb(0, 0, 0); font-family: Helvetica; font-size: 12px; font-style: normal; font-variant-ligatures: normal; font-variant-caps: normal; font-weight: 400; letter-spacing: normal; orphans: 2; text-align: left; text-indent: 0px; text-transform: none; widows: 2; word-spacing: 0px; -webkit-text-stroke-width: 0px; background-color: rgb(251, 251, 251); text-decoration-thickness: initial; text-decoration-style: initial; text-decoration-color: initial; float: none; display: inline !important;&quot;&gt;Progressive Rock&lt;/span&gt;" style="text;whiteSpace=wrap;html=1;" parent="1" vertex="1">
          <mxGeometry x="524" y="325" width="80" height="20" as="geometry" />
        </mxCell>
        <mxCell id="3QJTF2zPG5w9d_VsXsdD-41" value="&lt;span style=&quot;color: rgb(0, 0, 0); font-family: Helvetica; font-size: 12px; font-style: normal; font-variant-ligatures: normal; font-variant-caps: normal; font-weight: 400; letter-spacing: normal; orphans: 2; text-align: left; text-indent: 0px; text-transform: none; widows: 2; word-spacing: 0px; -webkit-text-stroke-width: 0px; background-color: rgb(251, 251, 251); text-decoration-thickness: initial; text-decoration-style: initial; text-decoration-color: initial; float: none; display: inline !important;&quot;&gt;Metallica&lt;/span&gt;" style="text;whiteSpace=wrap;html=1;" parent="1" vertex="1">
          <mxGeometry x="216" y="135" width="70" height="30" as="geometry" />
        </mxCell>
        <mxCell id="3QJTF2zPG5w9d_VsXsdD-42" value="&lt;span style=&quot;color: rgb(0, 0, 0); font-family: Helvetica; font-size: 12px; font-style: normal; font-variant-ligatures: normal; font-variant-caps: normal; font-weight: 400; letter-spacing: normal; orphans: 2; text-align: left; text-indent: 0px; text-transform: none; widows: 2; word-spacing: 0px; -webkit-text-stroke-width: 0px; background-color: rgb(251, 251, 251); text-decoration-thickness: initial; text-decoration-style: initial; text-decoration-color: initial; float: none; display: inline !important;&quot;&gt;Metal&lt;/span&gt;" style="text;whiteSpace=wrap;html=1;" parent="1" vertex="1">
          <mxGeometry x="223.5" y="170" width="35" height="20" as="geometry" />
        </mxCell>
        <mxCell id="3QJTF2zPG5w9d_VsXsdD-43" value="Nirvana" style="text;whiteSpace=wrap;html=1;" parent="1" vertex="1">
          <mxGeometry x="693" y="220" width="70" height="30" as="geometry" />
        </mxCell>
        <mxCell id="3QJTF2zPG5w9d_VsXsdD-44" value="&lt;span style=&quot;color: rgb(0, 0, 0); font-family: Helvetica; font-size: 12px; font-style: normal; font-variant-ligatures: normal; font-variant-caps: normal; font-weight: 400; letter-spacing: normal; orphans: 2; text-align: left; text-indent: 0px; text-transform: none; widows: 2; word-spacing: 0px; -webkit-text-stroke-width: 0px; background-color: rgb(251, 251, 251); text-decoration-thickness: initial; text-decoration-style: initial; text-decoration-color: initial; float: none; display: inline !important;&quot;&gt;Grunge&lt;/span&gt;" style="text;whiteSpace=wrap;html=1;" parent="1" vertex="1">
          <mxGeometry x="696.5" y="255" width="35" height="20" as="geometry" />
        </mxCell>
        <mxCell id="6FNS6-SO-fHjEQXvHyqN-2" value="" style="endArrow=classic;html=1;rounded=0;exitX=0.5;exitY=0;exitDx=0;exitDy=0;entryX=0.5;entryY=1;entryDx=0;entryDy=0;" parent="1" source="3QJTF2zPG5w9d_VsXsdD-21" target="3QJTF2zPG5w9d_VsXsdD-3" edge="1">
          <mxGeometry width="50" height="50" relative="1" as="geometry">
            <mxPoint x="571" y="520" as="sourcePoint" />
            <mxPoint x="621" y="470" as="targetPoint" />
          </mxGeometry>
        </mxCell>
        <mxCell id="6FNS6-SO-fHjEQXvHyqN-5" value="" style="endArrow=classic;html=1;rounded=0;exitX=1;exitY=0.5;exitDx=0;exitDy=0;entryX=0;entryY=0.5;entryDx=0;entryDy=0;" parent="1" source="3QJTF2zPG5w9d_VsXsdD-3" target="3QJTF2zPG5w9d_VsXsdD-6" edge="1">
          <mxGeometry width="50" height="50" relative="1" as="geometry">
            <mxPoint x="571" y="410" as="sourcePoint" />
            <mxPoint x="621" y="360" as="targetPoint" />
          </mxGeometry>
        </mxCell>
        <mxCell id="Co1VBrTQ-oarMu9Zlmb9-1" value="" style="endArrow=classic;html=1;rounded=0;exitX=0.5;exitY=0;exitDx=0;exitDy=0;entryX=0.903;entryY=0.783;entryDx=0;entryDy=0;entryPerimeter=0;" edge="1" parent="1" source="3QJTF2zPG5w9d_VsXsdD-29" target="3QJTF2zPG5w9d_VsXsdD-3">
          <mxGeometry width="50" height="50" relative="1" as="geometry">
            <mxPoint x="390" y="440" as="sourcePoint" />
            <mxPoint x="440" y="390" as="targetPoint" />
          </mxGeometry>
        </mxCell>
        <mxCell id="Co1VBrTQ-oarMu9Zlmb9-2" value="" style="endArrow=classic;html=1;rounded=0;exitX=0.05;exitY=0.192;exitDx=0;exitDy=0;exitPerimeter=0;entryX=1;entryY=1;entryDx=0;entryDy=0;" edge="1" parent="1" source="3QJTF2zPG5w9d_VsXsdD-2" target="3QJTF2zPG5w9d_VsXsdD-6">
          <mxGeometry width="50" height="50" relative="1" as="geometry">
            <mxPoint x="390" y="440" as="sourcePoint" />
            <mxPoint x="440" y="390" as="targetPoint" />
          </mxGeometry>
        </mxCell>
        <mxCell id="Co1VBrTQ-oarMu9Zlmb9-3" value="" style="endArrow=classic;html=1;rounded=0;exitX=0.936;exitY=0.278;exitDx=0;exitDy=0;exitPerimeter=0;entryX=0.011;entryY=0.675;entryDx=0;entryDy=0;entryPerimeter=0;" edge="1" parent="1" source="3QJTF2zPG5w9d_VsXsdD-4" target="3QJTF2zPG5w9d_VsXsdD-2">
          <mxGeometry width="50" height="50" relative="1" as="geometry">
            <mxPoint x="390" y="440" as="sourcePoint" />
            <mxPoint x="440" y="390" as="targetPoint" />
          </mxGeometry>
        </mxCell>
      </root>
    </mxGraphModel>
  </diagram>
</mxfile>
